<svg xmlns="http://www.w3.org/2000/svg" viewBox="0 0 100 100" width="100" height="100" style="fill: rgb(0, 0, 0);"><defs><style>.cls-1{isolation:isolate;}.cls-2{fill:#fff;}.cls-3{fill:#f1bc19;}.cls-4{fill:#fce0a2;}.cls-5{fill:#ee3e54;}.cls-6{fill:#fbcd59;}.cls-7{fill:#b5374c;}.cls-8{fill:#d8ad8f;}.cls-9{fill:#772d3d;}.cls-10,.cls-11{fill:#472b29;}.cls-11{opacity:0.41;}.cls-12{fill:#b2876b;}.cls-13,.cls-17,.cls-20,.cls-22,.cls-24{fill:none;stroke:#472b29;stroke-linecap:round;stroke-linejoin:round;}.cls-13{stroke-width:0.5px;}.cls-14{opacity:0.3;}.cls-15,.cls-23{opacity:0.8;mix-blend-mode:multiply;}.cls-16{fill:#f4989e;}.cls-17{stroke-width:0.6px;}.cls-18{fill:#6d1b18;}.cls-19{fill:#fdfcef;}.cls-20{stroke-width:0.4px;}.cls-21{fill:#e02b4a;}.cls-22{stroke-width:0.3px;}.cls-23{fill:#8e7469;}</style></defs><title>Artboard 42</title><g class="cls-1"><g id="line5"><circle class="cls-2" cx="22.06" cy="58.47" r="0.89"/><circle class="cls-2" cx="81.11" cy="33.6" r="0.68"/><circle class="cls-3" cx="78.48" cy="14.57" r="0.89"/><circle class="cls-3" cx="22.56" cy="66.15" r="0.89"/><circle class="cls-4" cx="51.6" cy="51.8" r="37.45"/><circle class="cls-3" cx="83.93" cy="16.72" r="4.01"/><circle class="cls-5" cx="87.93" cy="25.79" r="1.88"/><circle class="cls-6" cx="78.95" cy="78.21" r="1.88"/><circle class="cls-6" cx="15.79" cy="65.26" r="4.01"/><circle class="cls-5" cx="26.02" cy="89.4" r="1.88"/><circle class="cls-2" cx="77.6" cy="32.09" r="1.8"/><circle class="cls-2" cx="19.53" cy="53.15" r="2.54"/><ellipse class="cls-7" cx="53.34" cy="36.6" rx="9.14" ry="9.83" transform="translate(-7.36 14.23) rotate(-14.23)"/><path class="cls-8" d="M65.91,69.74c-.74-.52-10.23-3.8-10.23-3.8a1.46,1.46,0,0,1-1-1.2A19,19,0,0,1,54.41,62a16.53,16.53,0,0,0,6.12-6A4,4,0,0,0,61,54.31c0-1,0-2,0-3,.61-.09,2-.43,2.26-1.19.4-1.24,1-3.84,1-3.86.45-1.36-1-2.15-2.12-2.36a.41.41,0,0,1-.25.06c-3.47-.27-7.13-2.37-10.1-4.06-2.45-1.41-5.52-2.66-7.28-5a31.6,31.6,0,0,0-6.69-1.7,6.47,6.47,0,0,1,.23.79,1.85,1.85,0,0,0-1.89,2.35c.09.4.65,5.27,1.06,6.92a.46.46,0,0,1-.39.57c-1.35.17-2.64,1-2.18,2.39,0,0,.6,2.62,1,3.86.27.84,1.76,1.17,2.48,1.21,0,.83,0,1.66,0,2.49a4.46,4.46,0,0,0,.85,2.8,17.57,17.57,0,0,0,5.68,5.27c0,1-.23,2.8-.23,2.8s-.44,1-1,1.2L35.59,68.6a7.73,7.73,0,0,0-2.18.94C30,71.75,29.78,80.16,29.85,80.41l39.33-4A8.47,8.47,0,0,0,65.91,69.74Z"/><path class="cls-7" d="M38.54,34.31c-.24,0-.68.18-.87.21-1.51.25-1.38,1.33-1.38,1.33l1.43,7.74c0-.67.24-6.63,2.49-8.27A10.18,10.18,0,0,1,38.54,34.31Z"/><path class="cls-9" d="M47.39,41.9a20.84,20.84,0,0,0-7.23,1.71.22.22,0,0,0-.14.24.22.22,0,0,0,.25.13s5.06-.84,6.71-.83h.08a.27.27,0,0,0,.17-.14l.36-.84a.17.17,0,0,0,0-.18A.23.23,0,0,0,47.39,41.9Z"/><path class="cls-9" d="M51.6,42.93A20.84,20.84,0,0,1,59,42.55a.21.21,0,0,1,.2.19.22.22,0,0,1-.2.2s-5.09.61-6.68,1.08h-.08a.27.27,0,0,1-.21-.09l-.57-.7a.2.2,0,0,1,0-.18A.22.22,0,0,1,51.6,42.93Z"/><path class="cls-10" d="M44.09,45.19a1.37,1.37,0,0,0-1.2.83.64.64,0,0,1,.2,0,.82.82,0,0,1,0,1.64.67.67,0,0,1-.37-.11,1.51,1.51,0,0,0,1.37,1.29,1.86,1.86,0,0,0,0-3.62Z"/><path class="cls-10" d="M55,45.19a1.31,1.31,0,0,0-1.07.62.75.75,0,0,1,.26-.05.82.82,0,0,1,0,1.64.74.74,0,0,1-.62-.35A1.47,1.47,0,1,0,55,45.19Z"/><path class="cls-11" d="M49.74,55.16a1.67,1.67,0,0,0,1.35-.75.29.29,0,0,0,0-.35.17.17,0,0,0-.28,0,1.24,1.24,0,0,1-1,.5,1.22,1.22,0,0,1-1-.5.18.18,0,0,0-.29,0,.3.3,0,0,0,0,.35A1.66,1.66,0,0,0,49.74,55.16Z"/><path class="cls-12" d="M65.77,69.83a3.19,3.19,0,0,1-.34-.13l-.57-.23c-1.22-.53-9.22-3.26-9.22-3.26a1.85,1.85,0,0,1-1.22-1.07,10.87,10.87,0,0,1-.21-3.26A15.92,15.92,0,0,1,50,63.65c-1.86.19-5.06-1.62-5.06-1.62s-.17,2.39-.29,3.06a1.67,1.67,0,0,1-1.26,1.12l-7.7,2.58a7.23,7.23,0,0,0-5.43,5.56H30.2c0,.1-.05.32-.09.6-.14.71-.15,5.22-.13,5.34-.05.46-.09,1-.14,1.51a21.64,21.64,0,0,0,2.41,2.12,37.49,37.49,0,0,0,37.3.69C69.32,76.62,69.61,71,65.77,69.83Z"/><path class="cls-13" d="M44.64,61.7s3.54,2,5.42,1.81a14,14,0,0,0,4.53-1.85"/><g class="cls-14"><g class="cls-15"><ellipse class="cls-16" cx="42.48" cy="53" rx="1.96" ry="1.99"/></g><g class="cls-15"><ellipse class="cls-16" cx="57.53" cy="53" rx="1.96" ry="1.99"/></g></g><line class="cls-17" x1="61.36" y1="43.9" x2="60.91" y2="51.26"/><path class="cls-18" d="M46.31,57.55a1.84,1.84,0,0,0-.06.47c0,1.39,1.54,2.52,3.43,2.52s3.44-1.13,3.44-2.52a1.84,1.84,0,0,0-.06-.47Z"/><path class="cls-5" d="M51.5,60.15a3,3,0,0,0-3.63,0,4.22,4.22,0,0,0,1.81.39A4.26,4.26,0,0,0,51.5,60.15Z"/><path class="cls-19" d="M47.29,57.55V58c0,.37.49.68,1.09.68H51c.6,0,1.09-.31,1.09-.68v-.43s0,0,0,0Z"/><path class="cls-20" d="M46.31,57.55a1.84,1.84,0,0,0-.06.47c0,1.39,1.54,2.52,3.43,2.52s3.44-1.13,3.44-2.52a1.84,1.84,0,0,0-.06-.47Z"/><path class="cls-5" d="M39,36.67s16.16,13,27.44,9.56c5-1.56,3.45-5.92,3.45-5.92s-2.42,3.74-5.21,1.84-8-24.4-23.19-15.28C36.28,30,39,36.67,39,36.67Z"/><path class="cls-21" d="M69.93,40.54s-2.42,3.74-5.21,1.84S56.69,18,41.53,27.1c-.24.15-.45.31-.66.47,14.35-1,19.26,21,25.61,18.89C71.48,44.8,69.93,40.54,69.93,40.54Z"/><circle class="cls-22" cx="62.05" cy="49.51" r="0.53"/><path class="cls-3" d="M40.87,67.05c1.54,1.26,13,1.86,16.11-.66l4.86,1.69L63.33,87.4S50.68,92.69,35,85.46l.67-16.67Z"/><path class="cls-17" d="M41.7,26.87c-5.21,3.16-2.46,9.8-2.46,9.8s16,13,27.26,9.56c5-1.56,3.43-5.92,3.43-5.92"/><circle class="cls-23" cx="46.57" cy="50.53" r="0.22" transform="translate(-2.85 2.78) rotate(-3.32)"/><circle class="cls-23" cx="46.89" cy="52.23" r="0.22" transform="translate(-2.95 2.8) rotate(-3.32)"/><circle class="cls-23" cx="48.35" cy="51.2" r="0.22" transform="translate(-2.88 2.89) rotate(-3.32)"/><circle class="cls-23" cx="51.54" cy="50.99" r="0.22" transform="translate(-2.87 3.07) rotate(-3.32)"/><circle class="cls-23" cx="52.49" cy="52.42" r="0.22" transform="translate(-2.95 3.13) rotate(-3.32)"/><circle class="cls-23" cx="53.44" cy="50.9" r="0.22" transform="translate(-2.86 3.18) rotate(-3.32)"/><path class="cls-24" d="M60.53,56A3.78,3.78,0,0,0,61,54.3c0-1,0-2,0-2.95.61-.08,2-.43,2.27-1.18s.64-2.38.84-3.23a13.43,13.43,0,0,0,2.27-.46l.09,0,.2-.08c4.77-1.62,3.25-5.84,3.25-5.84s-2.42,3.74-5.2,1.83c-.64-.43-1.4-1.88-2.35-3.77a10.4,10.4,0,0,0-.17-4.25,9.83,9.83,0,0,0-8.11-7.46c-3.18-2.31-7.26-3-12.57.21-2.69,1.62-3.28,4.8-3.21,6.89-.17,0-.25.06-.26.09a1.89,1.89,0,0,0-1.89,2.35c.12.89.86,7.25,1.27,7.45-1.53,0-3.31.81-2.78,2.42,0,0,.59,2.62,1,3.87.26.84,1.75,1.17,2.47,1.2,0,.83,0,1.66,0,2.49A4.48,4.48,0,0,0,39,56.67a17.66,17.66,0,0,0,5.67,5.27c0,1-.23,2.8-.23,2.8s-.44,1-1,1.19L35.59,68.6a7.86,7.86,0,0,0-2.18.94C30,71.75,29.89,81.3,29.85,81.79c1.17,2.3,11.46,6.44,16.49,7.14,1.71.19,3.46.31,5.26.37a37.29,37.29,0,0,0,18-4.62c-.11-3.51-.11-6.56-.4-9,0-.06,0-.1,0-.16l0-.2a2.23,2.23,0,0,0,0-.23c-.37-2.52-1.12-4.28-2.76-5.06-.13-.11-9.34-3.66-9.34-3.66h0l-1.29-.46a1.46,1.46,0,0,1-1-1.19A20.73,20.73,0,0,1,54.41,62,16.41,16.41,0,0,0,60.53,56Z"/></g></g></svg>