<svg xmlns="http://www.w3.org/2000/svg" viewBox="0 0 100 100" width="100" height="100" style="fill: rgb(0, 0, 0);"><defs><style>.cls-1{fill:#fff;}.cls-2{fill:#f1bc19;}.cls-3{fill:#c0e5e4;}.cls-4{fill:#77cbd2;}.cls-5{fill:#fbcd59;}.cls-6{fill:#dba179;}.cls-10,.cls-11,.cls-12,.cls-13,.cls-7{fill:none;stroke-linejoin:round;}.cls-7{stroke:#00a5a5;}.cls-10,.cls-12,.cls-13,.cls-7{stroke-linecap:round;}.cls-11,.cls-7{stroke-width:0.6px;}.cls-8{fill:#edbc94;}.cls-9{fill:#512c2b;}.cls-10,.cls-12,.cls-13{stroke:#472b29;}.cls-11{stroke:#895d3d;}.cls-12{stroke-width:0.4px;}.cls-13{stroke-width:0.5px;}.cls-14{fill:#472b29;}</style></defs><title>people man_9</title><g id="line2"><g id="_grupa_" data-name="&lt;grupa&gt;"><circle class="cls-1" cx="20.32" cy="55.99" r="0.89"/><circle class="cls-1" cx="79.37" cy="31.12" r="0.68"/><circle class="cls-2" cx="76.74" cy="12.08" r="0.89"/><circle class="cls-2" cx="20.81" cy="63.66" r="0.89"/><circle class="cls-3" cx="49.63" cy="49.32" r="37.45"/><circle class="cls-2" cx="82.18" cy="14.24" r="4.01"/><circle class="cls-4" cx="86.19" cy="23.31" r="1.88"/><circle class="cls-5" cx="77.2" cy="75.73" r="1.88"/><circle class="cls-5" cx="14.04" cy="62.78" r="4.01"/><circle class="cls-4" cx="24.28" cy="86.91" r="1.88"/><circle class="cls-1" cx="75.85" cy="29.6" r="1.8"/><circle class="cls-1" cx="17.78" cy="50.67" r="2.54"/><path class="cls-6" d="M68.12,70.53c-.4-2.15-1.28-3.41-3.34-4l-.35-.12-.58-.24c-1.25-.53-8.68-3.27-8.68-3.27a1.87,1.87,0,0,1-1.24-1.08,8.66,8.66,0,0,1-.23-2.91,46.9,46.9,0,0,1-5,1.42c-1.9.18-6-2.27-6-2.27s-.1,3-.23,3.71a1.67,1.67,0,0,1-1.28,1.13L34,65.46a8.11,8.11,0,0,0-2.21.91,7.52,7.52,0,0,0-3.16,4.16s-.47,3.31-.45,3.43c0,.47-.09,1-.13,1.51,7.76,5.26,14,6.73,24.69,6.26,4.87-.21,12.1-2.61,15.9-4.52C68.47,73,68.12,70.53,68.12,70.53Z"/><path class="cls-4" d="M64.78,66.54l-.35-.12-.58-.24c-.77-.33-3.91-1.5-6.19-2.34l-.1,0C55,65.1,51.46,67,48.17,67s-6.58-1.75-9.38-3.22l-.32.08L34,65.5a8.11,8.11,0,0,0-2.21.91,7.55,7.55,0,0,0-3.16,4.16s-.47,3.31-.45,3.43c0,.47-.09,5.45-.13,6,7.76,5.26,14,6.73,24.69,6.26,4.87-.21,12.1-2.61,15.9-4.52-.21-4.23-.56-11.15-.56-11.15C67.72,68.42,66.84,67.16,64.78,66.54Z"/><line class="cls-7" x1="34.9" y1="79.96" x2="34.9" y2="83.91"/><line class="cls-7" x1="61.23" y1="79.96" x2="61.23" y2="84.61"/><path class="cls-8" d="M60.42,44h-.36c-1-.05-.89.32-.84-.28.08-1.06-.43-5.34-.43-5.56,0-4.45-4.65-8.09-10.46-8.29h-.24c-5.81.2-10.46,3.84-10.46,8.29,0,.22-.15,4.52-.07,5.58,0,.6-.24.21-1.2.26H36a2.22,2.22,0,0,0-2.1,1.58c.13.08.61,3.73,1.39,5.17.44.8,1.12.91,1.82,1.43a1.56,1.56,0,0,1,.57,1,9,9,0,0,0,2.67,4.1c.59.57,4.5,4.74,7.86,4.52s7.27-4,7.86-4.52a9,9,0,0,0,2.67-4.1,1.56,1.56,0,0,1,.57-1c.7-.52,1.38-.63,1.81-1.43.78-1.44,1.26-5.09,1.39-5.17A2.21,2.21,0,0,0,60.42,44Z"/><path class="cls-9" d="M48.27,51.06a2.36,2.36,0,0,0,1.77-.8.12.12,0,0,0,0-.17h0a.12.12,0,0,0-.17,0,2.32,2.32,0,0,1-3.18,0,.15.15,0,0,0-.09,0,.11.11,0,0,0-.08,0,.12.12,0,0,0,0,.17A2.34,2.34,0,0,0,48.27,51.06Z"/><path class="cls-9" d="M46.09,41.83l.43-.83a11.25,11.25,0,0,0-5.68.18l.55.81A8.91,8.91,0,0,1,46.09,41.83Z"/><path class="cls-9" d="M55.26,41.83,55.7,41a11.29,11.29,0,0,0-5.69.18l.55.81A8.91,8.91,0,0,1,55.26,41.83Z"/><path class="cls-9" d="M43.45,43a1.22,1.22,0,0,0-1.05.73.57.57,0,0,1,.18,0,.73.73,0,0,1,0,1.46.58.58,0,0,1-.32-.1,1.33,1.33,0,0,0,1.19,1.14,1.65,1.65,0,0,0,0-3.2Z"/><path class="cls-9" d="M53,43a1.15,1.15,0,0,0-.94.55.59.59,0,0,1,.23-.05.73.73,0,0,1,0,1.46.65.65,0,0,1-.54-.32A1.29,1.29,0,1,0,53,43Z"/><path class="cls-9" d="M53.56,52.92a.13.13,0,0,0,0-.17h0a.12.12,0,0,0-.17,0,8.47,8.47,0,0,1-5.14,1.41,8.47,8.47,0,0,1-5.14-1.41.11.11,0,0,0-.08,0,.12.12,0,0,0-.09,0,.13.13,0,0,0,0,.17,9.26,9.26,0,0,0,10.58,0Z"/><path class="cls-9" d="M49.67,58.19c.06,0,.11-.08.11-.16s-.05-.16-.11-.16H47.09c-.06,0-.11.07-.11.16s.05.16.11.16Z"/><path class="cls-10" d="M68.12,70.7c-.4-2.14-1.28-3.4-3.34-4l-.35-.12-.58-.24c-1.25-.53-8.68-3.27-8.68-3.27A1.87,1.87,0,0,1,53.93,62a6.51,6.51,0,0,1-.25-2.3,29.94,29.94,0,0,0,2.39-1.86,9.08,9.08,0,0,0,2.67-4.15,1.58,1.58,0,0,1,.57-1c.7-.52,1.38-.64,1.81-1.45a15.35,15.35,0,0,0,1.39-5.23,2.21,2.21,0,0,0-2.09-1.59h-.36c-1,0-.89,0-.84-.62.08-1.07-.43-5.07-.43-5.28,0-4.51-4.65-8.19-10.46-8.39h-.24c-5.81.2-10.46,3.88-10.46,8.39,0,.21-.15,4.56-.07,5.64,0,.6-.24.21-1.2.26H36a2.23,2.23,0,0,0-2.1,1.59,15.71,15.71,0,0,0,1.39,5.23c.44.81,1.12.93,1.82,1.45a1.58,1.58,0,0,1,.57,1,9.08,9.08,0,0,0,2.67,4.15,25.73,25.73,0,0,0,2.28,1.72c-.05.91-.11,2-.18,2.39a1.67,1.67,0,0,1-1.28,1.13L34,65.63a8.44,8.44,0,0,0-2.21.91,6,6,0,0,0-3.16,4.16c-.58,2.17-.54,8.88-.58,9.42,7.76,5.26,14,6.73,24.69,6.26,4.87-.21,12.1-2.61,15.9-4.53C68.47,77.63,68.12,70.7,68.12,70.7Z"/><polyline class="cls-11" points="58.95 47.2 60.44 46.55 60.18 48.85"/><polyline class="cls-11" points="37.79 46.85 36.3 46.21 36.56 48.51"/><line class="cls-12" x1="37.77" y1="44.13" x2="37.6" y2="52.78"/><line class="cls-12" x1="58.82" y1="44.13" x2="58.98" y2="52.78"/><path class="cls-13" d="M42.61,59.17s3.94,2.89,5.94,2.66,5.13-2.44,5.13-2.44"/><path class="cls-14" d="M60.67,30.75c-.07-.56-.68-.48-1.28-.44-1.87.11-2.33-.49-6.15-2.62a9.56,9.56,0,0,0-10.3.55C31,30.85,38,46.21,38,46.21s0-8.08,3.65-10.54c6.19,4,12.09,4.47,15.69,2.09,1.39,3.07,1.35,8.45,1.35,8.45a14.43,14.43,0,0,0,1.09-10.75c-.44-1.44,1.15-2.87.9-4.71Z"/></g></g></svg>