<?xml version="1.0" encoding="iso-8859-1"?>
<!-- Generator: Adobe Illustrator 19.0.0, SVG Export Plug-In . SVG Version: 6.00 Build 0)  -->
<svg version="1.1" id="Capa_1" xmlns="http://www.w3.org/2000/svg" xmlns:xlink="http://www.w3.org/1999/xlink" x="0px" y="0px"
	 viewBox="0 0 480 480" style="enable-background:new 0 0 480 480;" xml:space="preserve">
<g>
	
		<linearGradient id="SVGID_1_" gradientUnits="userSpaceOnUse" x1="-26.8772" y1="617.504" x2="-26.8772" y2="553.625" gradientTransform="matrix(8 0 0 -8 455 4941)">
		<stop  offset="0" style="stop-color:#FFF33B"/>
		<stop  offset="0.04" style="stop-color:#FEE72E"/>
		<stop  offset="0.117" style="stop-color:#FED51B"/>
		<stop  offset="0.196" style="stop-color:#FDCA10"/>
		<stop  offset="0.281" style="stop-color:#FDC70C"/>
		<stop  offset="0.669" style="stop-color:#F3903F"/>
		<stop  offset="0.888" style="stop-color:#ED683C"/>
		<stop  offset="1" style="stop-color:#E93E3A"/>
	</linearGradient>
	<path style="fill:url(#SVGID_1_);" d="M264,384h-32c-4.418,0-8-3.582-8-8v-16h-16v16c0,4.418-3.582,8-8,8h-32c-4.418,0-8-3.582-8-8
		v-16h-16c-4.418,0-8-3.582-8-8v-32c0-4.418,3.582-8,8-8h16V168h-16c-4.418,0-8-3.582-8-8v-32c0-4.418,3.582-8,8-8h16v-16
		c0-4.418,3.582-8,8-8h32c4.418,0,8,3.582,8,8v16h16v-16c0-4.418,3.582-8,8-8h32c4.418,0,8,3.582,8,8v20.08
		c37.509,13.282,57.149,54.456,43.867,91.965c-1.382,3.904-3.099,7.682-5.131,11.291c33.504,21.418,43.302,65.94,21.884,99.444
		C319.398,347.463,296.549,359.985,272,360v16C272,380.418,268.418,384,264,384z M240,368h16v-16c0-4.418,3.582-8,8-8h8
		c30.928-0.017,55.986-25.104,55.968-56.032c-0.012-21.629-12.478-41.316-32.024-50.576c-3.993-1.89-5.698-6.66-3.808-10.654
		c0.224-0.474,0.495-0.925,0.808-1.346c18.459-24.815,13.306-59.896-11.509-78.355c-5.816-4.326-12.416-7.482-19.435-9.293
		c-3.531-0.912-5.999-4.097-6-7.744v-18h-16v16c0,4.418-3.582,8-8,8h-32c-4.418,0-8-3.582-8-8v-16h-16v16c0,4.418-3.582,8-8,8h-16
		v16h16c4.418,0,8,3.582,8,8v160c0,4.418-3.582,8-8,8h-16v16h16c4.418,0,8,3.582,8,8v16h16v-16c0-4.418,3.582-8,8-8h32
		c4.418,0,8,3.582,8,8V368z M272,328h-72c-4.418,0-8-3.582-8-8v-64c0-4.418,3.582-8,8-8h72c22.091,0,40,17.909,40,40
		S294.091,328,272,328z M208,312h64c13.255,0,24-10.745,24-24s-10.745-24-24-24h-64V312z M248,232h-48c-4.418,0-8-3.582-8-8v-64
		c0-4.418,3.582-8,8-8h48c22.091,0,40,17.909,40,40S270.091,232,248,232z M208,216h40c13.255,0,24-10.745,24-24s-10.745-24-24-24
		h-40V216z"/>
	
		<linearGradient id="SVGID_2_" gradientUnits="userSpaceOnUse" x1="-26.875" y1="617.504" x2="-26.875" y2="553.625" gradientTransform="matrix(8 0 0 -8 455 4941)">
		<stop  offset="0" style="stop-color:#FFF33B"/>
		<stop  offset="0.04" style="stop-color:#FEE72E"/>
		<stop  offset="0.117" style="stop-color:#FED51B"/>
		<stop  offset="0.196" style="stop-color:#FDCA10"/>
		<stop  offset="0.281" style="stop-color:#FDC70C"/>
		<stop  offset="0.669" style="stop-color:#F3903F"/>
		<stop  offset="0.888" style="stop-color:#ED683C"/>
		<stop  offset="1" style="stop-color:#E93E3A"/>
	</linearGradient>
	<path style="fill:url(#SVGID_2_);" d="M240,480C107.452,480,0,372.548,0,240S107.452,0,240,0s240,107.452,240,240
		C479.85,372.486,372.486,479.85,240,480z M240,16C116.288,16,16,116.288,16,240s100.288,224,224,224s224-100.288,224-224
		C463.859,116.347,363.653,16.141,240,16z"/>
	
		<linearGradient id="SVGID_3_" gradientUnits="userSpaceOnUse" x1="-26.875" y1="617.504" x2="-26.875" y2="553.625" gradientTransform="matrix(8 0 0 -8 455 4941)">
		<stop  offset="0" style="stop-color:#FFF33B"/>
		<stop  offset="0.04" style="stop-color:#FEE72E"/>
		<stop  offset="0.117" style="stop-color:#FED51B"/>
		<stop  offset="0.196" style="stop-color:#FDCA10"/>
		<stop  offset="0.281" style="stop-color:#FDC70C"/>
		<stop  offset="0.669" style="stop-color:#F3903F"/>
		<stop  offset="0.888" style="stop-color:#ED683C"/>
		<stop  offset="1" style="stop-color:#E93E3A"/>
	</linearGradient>
	<path style="fill:url(#SVGID_3_);" d="M240,448c-114.875,0-208-93.125-208-208S125.125,32,240,32s208,93.125,208,208
		C447.868,354.82,354.82,447.868,240,448z M240,48C133.961,48,48,133.961,48,240s85.961,192,192,192s192-85.961,192-192
		C431.877,134.012,345.987,48.123,240,48z"/>
</g>
<g>
</g>
<g>
</g>
<g>
</g>
<g>
</g>
<g>
</g>
<g>
</g>
<g>
</g>
<g>
</g>
<g>
</g>
<g>
</g>
<g>
</g>
<g>
</g>
<g>
</g>
<g>
</g>
<g>
</g>
</svg>
