<?xml version="1.0" encoding="iso-8859-1"?>
<!-- Generator: Adobe Illustrator 19.0.0, SVG Export Plug-In . SVG Version: 6.00 Build 0)  -->
<svg version="1.1" id="Capa_1" xmlns="http://www.w3.org/2000/svg" xmlns:xlink="http://www.w3.org/1999/xlink" x="0px" y="0px"
	 viewBox="0 0 512 512" style="enable-background:new 0 0 512 512;" xml:space="preserve">
<g>
	<path style="fill:#B19046;" d="M512,256c0,3.001-0.088,5.914-0.265,8.828c-0.527,17.903-3.164,35.681-7.857,52.966
		c-1.589,6.003-3.443,11.917-5.473,17.655c-6.58,18.708-15.509,36.506-26.571,52.966c-4.061,6.091-8.474,12.006-13.065,17.655
		c-45.202,55.878-113.243,88.324-185.114,88.276c-5.914,0-11.829-0.177-17.655-0.706V18.361c5.826-0.53,11.741-0.706,17.655-0.706
		c71.872-0.049,139.913,32.398,185.114,88.276c4.65,5.661,9.01,11.554,13.065,17.655c11.062,16.46,19.991,34.257,26.571,52.966
		c2.03,5.738,3.884,11.652,5.473,17.655c4.693,17.285,7.33,35.063,7.857,52.966C511.912,250.086,512,252.999,512,256z"/>
	<g>
		<path style="fill:#E4C05C;" d="M471.834,123.586h-83.421c-4.875,0-8.828-3.952-8.828-8.828s3.952-8.828,8.828-8.828h70.356
			C463.42,111.592,467.78,117.485,471.834,123.586z"/>
		<path style="fill:#E4C05C;" d="M471.834,388.414c-4.061,6.091-8.474,12.006-13.065,17.655h-70.356
			c-4.875,0-8.828-3.952-8.828-8.828c0-4.875,3.952-8.828,8.828-8.828H471.834z"/>
		<path style="fill:#E4C05C;" d="M503.879,194.207H384.53c-4.875,0-8.828-3.952-8.828-8.828c0-4.875,3.952-8.828,8.828-8.828
			h113.876C500.436,182.29,502.29,188.204,503.879,194.207z"/>
		<path style="fill:#E4C05C;" d="M512,256c0,3.001-0.088,5.914-0.265,8.828h-70.797c-4.875,0-8.828-3.952-8.828-8.828
			s3.952-8.828,8.828-8.828h70.797C511.912,250.086,512,252.999,512,256z"/>
		<path style="fill:#E4C05C;" d="M503.879,317.793c-1.589,6.003-3.443,11.917-5.473,17.655H384.53c-4.875,0-8.828-3.952-8.828-8.828
			s3.952-8.828,8.828-8.828H503.879z"/>
	</g>
	<circle style="fill:#F3D55B;" cx="238.345" cy="256" r="238.345"/>
	<path style="fill:#E4C05C;" d="M238.345,423.724c-92.631,0-167.724-75.093-167.724-167.724S145.713,88.276,238.345,88.276
		S406.069,163.369,406.069,256C405.964,348.588,330.933,423.619,238.345,423.724z"/>
	<g>
		<path style="fill:#F9EAB0;" d="M238.345,61.793c-2.337-0.035-4.575-0.949-6.268-2.56c-1.627-1.683-2.544-3.927-2.56-6.268
			c0.012-1.154,0.251-2.295,0.703-3.358c0.449-1.069,1.077-2.053,1.857-2.91c2.525-2.546,6.341-3.312,9.653-1.937
			c3.312,1.375,5.463,4.618,5.442,8.204c-0.02,0.591-0.079,1.18-0.177,1.763c-0.098,0.553-0.277,1.089-0.53,1.591
			c-0.194,0.563-0.462,1.098-0.797,1.591c-0.349,0.44-0.703,0.879-1.056,1.323C242.919,60.844,240.681,61.758,238.345,61.793z"/>
		<path style="fill:#F9EAB0;" d="M238.345,467.862c-2.337-0.035-4.575-0.949-6.268-2.56c-1.627-1.683-2.544-3.927-2.56-6.268
			c0.012-1.154,0.251-2.295,0.703-3.358c0.449-1.069,1.077-2.053,1.857-2.91c2.525-2.546,6.341-3.312,9.653-1.937
			s5.463,4.618,5.442,8.204c-0.02,0.591-0.079,1.18-0.177,1.763c-0.098,0.553-0.277,1.089-0.53,1.591
			c-0.194,0.563-0.462,1.098-0.797,1.591c-0.349,0.44-0.703,0.879-1.056,1.323C242.919,466.913,240.681,467.827,238.345,467.862z"/>
		<path style="fill:#F9EAB0;" d="M185.819,68.677c-1.176,0.009-2.344-0.2-3.444-0.616c-1.056-0.462-2.015-1.122-2.823-1.944
			c-3.414-3.447-3.414-9.001,0-12.448c0.785-0.849,1.749-1.512,2.823-1.94c3.309-1.319,7.085-0.558,9.625,1.939
			c1.691,1.629,2.647,3.876,2.647,6.224c0,2.348-0.955,4.595-2.647,6.224C190.374,67.775,188.142,68.699,185.819,68.677z"/>
		<path style="fill:#F9EAB0;" d="M290.866,460.974c-2.351-0.047-4.594-0.994-6.268-2.647c-3.414-3.447-3.414-9.001,0-12.448
			c3.539-3.267,8.995-3.267,12.534,0c0.427,0.377,0.786,0.824,1.06,1.323c0.325,0.481,0.62,0.982,0.884,1.5
			c0.189,0.548,0.336,1.11,0.44,1.681c0.146,0.576,0.206,1.17,0.177,1.763c0.023,2.323-0.902,4.555-2.56,6.181
			c-0.8,0.873-1.8,1.539-2.914,1.94C293.16,460.722,292.02,460.963,290.866,460.974z"/>
		<path style="fill:#F9EAB0;" d="M136.828,88.978c-1.149,0.019-2.29-0.19-3.358-0.616c-1.066-0.49-2.048-1.145-2.91-1.94
			c-0.381-0.42-0.735-0.863-1.06-1.328c-0.335-0.491-0.603-1.024-0.797-1.586c-0.254-0.501-0.431-1.037-0.526-1.591
			c-0.104-0.584-0.163-1.175-0.177-1.767c0.013-1.153,0.251-2.292,0.703-3.353c0.807-2.215,2.552-3.96,4.767-4.767
			c1.611-0.704,3.4-0.889,5.121-0.53c0.553,0.098,1.089,0.277,1.591,0.53c0.563,0.194,1.098,0.462,1.591,0.797
			c0.44,0.353,0.879,0.703,1.323,1.056c0.778,0.86,1.405,1.845,1.854,2.914c0.495,1.047,0.737,2.196,0.707,3.353
			c-0.016,0.593-0.075,1.183-0.177,1.767c-0.098,0.553-0.277,1.089-0.53,1.591c-0.194,0.562-0.462,1.095-0.797,1.586
			c-0.349,0.444-0.703,0.884-1.056,1.328c-0.421,0.377-0.862,0.73-1.323,1.056c-0.51,0.329-1.042,0.624-1.591,0.884
			c-0.518,0.188-1.05,0.336-1.591,0.444C138.014,88.949,137.42,89.007,136.828,88.978z"/>
		<path style="fill:#F9EAB0;" d="M339.862,440.672c-2.348,0.023-4.607-0.9-6.267-2.56c-1.66-1.66-2.583-3.919-2.56-6.267
			c0.012-1.153,0.251-2.292,0.703-3.353c0.405-1.092,1.038-2.085,1.857-2.913c2.536-2.51,6.335-3.242,9.621-1.854
			c1.071,0.446,2.056,1.073,2.914,1.854c3.414,3.481,3.414,9.054,0,12.534c-0.859,0.779-1.844,1.406-2.914,1.854
			C342.155,440.419,341.015,440.658,339.862,440.672z"/>
		<path style="fill:#F9EAB0;" d="M94.806,121.289c-2.359-0.008-4.616-0.962-6.268-2.647c-0.447-0.38-0.834-0.826-1.147-1.323
			c-0.267-0.444-0.53-0.974-0.793-1.504c-0.2-0.544-0.348-1.105-0.444-1.677c-0.146-0.546-0.205-1.112-0.177-1.677
			c-0.01-1.177,0.201-2.345,0.621-3.444c1.11-2.74,3.529-4.736,6.43-5.305c2.901-0.569,5.894,0.364,7.958,2.482
			c0.851,0.783,1.514,1.748,1.94,2.823c0.446,1.094,0.686,2.262,0.707,3.444c-0.014,0.563-0.073,1.123-0.177,1.677
			c-0.177,0.621-0.353,1.151-0.53,1.677c-0.263,0.53-0.53,1.06-0.793,1.504c-0.313,0.497-0.699,0.943-1.147,1.323
			c-0.785,0.851-1.751,1.514-2.828,1.94C97.1,121.037,95.96,121.277,94.806,121.289z"/>
		<path style="fill:#F9EAB0;" d="M381.879,408.362c-1.147,0.017-2.287-0.193-3.353-0.616c-1.058-0.46-2.017-1.12-2.823-1.944
			c-1.703-1.639-2.661-3.904-2.651-6.268c0.014-1.153,0.254-2.293,0.707-3.353c0.949-2.121,2.646-3.818,4.767-4.767
			c3.309-1.311,7.08-0.549,9.621,1.944c1.658,1.625,2.583,3.855,2.56,6.177c0.024,2.348-0.899,4.607-2.56,6.268
			C386.496,407.478,384.231,408.403,381.879,408.362z"/>
		<path style="fill:#F9EAB0;" d="M62.496,163.31c-1.153-0.014-2.293-0.254-3.353-0.707c-1.069-0.449-2.054-1.076-2.914-1.854
			c-0.353-0.444-0.703-0.884-1.056-1.323c-0.335-0.492-0.603-1.027-0.797-1.591c-0.253-0.501-0.432-1.037-0.53-1.591
			c-0.101-0.583-0.16-1.172-0.177-1.763c0.035-2.337,0.949-4.575,2.56-6.268c0.859-0.78,1.844-1.409,2.914-1.858
			c2.132-0.97,4.579-0.97,6.711,0c1.091,0.408,2.084,1.041,2.914,1.858c1.61,1.693,2.523,3.931,2.556,6.268
			c-0.017,2.34-0.932,4.583-2.556,6.268c-0.831,0.815-1.824,1.446-2.914,1.854C64.791,163.057,63.65,163.297,62.496,163.31z"/>
		<path style="fill:#F9EAB0;" d="M414.19,366.345c-4.163-0.041-7.72-3.011-8.502-7.1c-0.782-4.089,1.427-8.162,5.281-9.736
			c3.854-1.574,8.283-0.213,10.588,3.255c2.304,3.467,1.844,8.078-1.1,11.022C418.764,365.396,416.526,366.31,414.19,366.345z"/>
		<path style="fill:#F9EAB0;" d="M42.194,212.302c-2.333-0.01-4.563-0.965-6.181-2.647c-1.657-1.627-2.581-3.859-2.556-6.181
			c-0.009-1.176,0.2-2.344,0.616-3.444c0.428-1.074,1.091-2.039,1.94-2.823c0.361-0.445,0.814-0.807,1.328-1.06
			c0.468-0.346,0.971-0.642,1.5-0.884c0.544-0.199,1.105-0.346,1.677-0.44c2.589-0.532,5.279,0.136,7.319,1.816
			c2.04,1.68,3.211,4.192,3.185,6.835c0.029,0.565-0.031,1.13-0.177,1.677c-0.093,0.572-0.24,1.133-0.44,1.677
			c-0.267,0.53-0.53,1.06-0.797,1.5c-0.31,0.5-0.697,0.948-1.147,1.328C46.81,211.34,44.553,212.293,42.194,212.302z"/>
		<path style="fill:#F9EAB0;" d="M434.491,317.349c-2.348,0.023-4.607-0.9-6.267-2.56c-1.66-1.66-2.583-3.919-2.56-6.267
			c-0.023-2.321,0.902-4.552,2.56-6.177c3.47-3.358,8.978-3.358,12.448,0c1.682,1.616,2.637,3.844,2.646,6.177
			c-0.008,2.359-0.962,4.616-2.646,6.268C439.046,316.447,436.814,317.372,434.491,317.349z"/>
		<path style="fill:#F9EAB0;" d="M35.31,264.828c-1.155-0.014-2.296-0.254-3.358-0.707c-1.068-0.449-2.051-1.076-2.91-1.853
			c-0.799-0.844-1.429-1.833-1.858-2.914c-0.937-2.139-0.937-4.572,0-6.711c0.449-1.069,1.077-2.053,1.858-2.91
			c0.857-0.78,1.841-1.409,2.909-1.858c2.151-0.879,4.561-0.879,6.711,0c1.07,0.449,2.056,1.077,2.915,1.858
			c0.778,0.858,1.405,1.842,1.854,2.909c0.943,2.138,0.943,4.573,0,6.711c-0.429,1.079-1.058,2.068-1.854,2.914
			c-0.86,0.778-1.845,1.405-2.914,1.854C37.603,264.573,36.464,264.813,35.31,264.828z"/>
		<path style="fill:#F9EAB0;" d="M441.379,264.828c-4.163-0.041-7.72-3.011-8.502-7.1c-0.782-4.089,1.427-8.162,5.281-9.736
			c3.854-1.574,8.283-0.213,10.588,3.255s1.844,8.078-1.1,11.022C445.954,263.879,443.716,264.793,441.379,264.828z"/>
		<path style="fill:#F9EAB0;" d="M42.194,317.349c-2.333,0.001-4.57-0.932-6.211-2.59c-1.641-1.658-2.551-3.904-2.526-6.237
			c-0.008-2.345,0.911-4.597,2.556-6.268c0.407-0.396,0.852-0.751,1.328-1.06c0.471-0.316,0.974-0.582,1.5-0.793
			c0.541-0.228,1.103-0.405,1.677-0.53c2.878-0.536,5.837,0.352,7.944,2.383c0.43,0.431,0.814,0.905,1.147,1.414
			c0.267,0.44,0.53,0.97,0.797,1.5c0.199,0.544,0.346,1.105,0.44,1.677c0.146,0.546,0.205,1.112,0.177,1.677
			c0.023,2.348-0.9,4.607-2.56,6.267S44.542,317.372,42.194,317.349L42.194,317.349z"/>
		<path style="fill:#F9EAB0;" d="M434.491,212.302c-2.359-0.008-4.616-0.962-6.268-2.647c-1.658-1.627-2.583-3.858-2.56-6.181
			c-0.024-2.348,0.899-4.607,2.56-6.268c3.506-3.267,8.942-3.267,12.448,0c1.685,1.651,2.638,3.909,2.646,6.268
			C443.204,208.301,439.318,212.187,434.491,212.302L434.491,212.302z"/>
		<path style="fill:#F9EAB0;" d="M62.496,366.345c-1.153-0.014-2.293-0.254-3.353-0.707c-1.069-0.449-2.054-1.076-2.914-1.854
			c-3.414-3.481-3.414-9.054,0-12.534c0.859-0.78,1.844-1.409,2.914-1.858c2.151-0.879,4.561-0.879,6.711,0
			c1.091,0.408,2.084,1.041,2.913,1.858c3.408,3.483,3.408,9.051,0,12.534c-0.831,0.815-1.824,1.446-2.914,1.854
			C64.791,366.091,63.65,366.331,62.496,366.345z"/>
		<path style="fill:#F9EAB0;" d="M414.19,163.31c-4.163-0.041-7.72-3.011-8.502-7.1c-0.782-4.089,1.427-8.162,5.281-9.736
			c3.854-1.574,8.283-0.213,10.588,3.255c2.304,3.467,1.844,8.078-1.1,11.022C418.764,162.362,416.526,163.276,414.19,163.31z"/>
		<path style="fill:#F9EAB0;" d="M94.806,408.362c-0.593,0.029-1.187-0.031-1.763-0.177c-0.571-0.104-1.133-0.251-1.681-0.44
			c-0.526-0.267-0.97-0.53-1.5-0.797c-0.482-0.333-0.925-0.717-1.323-1.147c-0.823-0.807-1.482-1.766-1.94-2.823
			c-0.42-1.099-0.631-2.267-0.621-3.444c-0.017-1.148,0.193-2.288,0.621-3.353c0.458-1.058,1.117-2.016,1.94-2.823
			c0.399-0.43,0.842-0.815,1.323-1.151c0.53-0.263,0.974-0.53,1.5-0.793c0.53-0.177,1.151-0.353,1.681-0.53
			c1.719-0.361,3.508-0.176,5.116,0.53c2.123,0.945,3.822,2.644,4.767,4.767c0.455,1.06,0.695,2.2,0.707,3.353
			c-0.012,1.183-0.252,2.352-0.707,3.444c-0.425,1.075-1.088,2.041-1.94,2.823c-0.809,0.823-1.769,1.483-2.828,1.944
			C97.093,408.17,95.953,408.379,94.806,408.362z"/>
		<path style="fill:#F9EAB0;" d="M381.879,121.289c-1.153-0.012-2.293-0.252-3.353-0.707c-2.123-0.945-3.822-2.644-4.767-4.767
			c-0.453-1.061-0.693-2.2-0.707-3.353c-0.009-2.363,0.949-4.628,2.651-6.268c1.632-1.684,3.877-2.634,6.222-2.634
			c2.345,0,4.59,0.95,6.222,2.634c1.661,1.66,2.584,3.919,2.56,6.268c0.023,2.323-0.902,4.555-2.56,6.181
			C386.506,120.342,384.242,121.298,381.879,121.289z"/>
		<path style="fill:#F9EAB0;" d="M136.828,440.672c-1.155-0.014-2.296-0.254-3.358-0.707c-1.08-0.426-2.067-1.055-2.909-1.854
			c-0.402-0.433-0.758-0.907-1.06-1.414c-0.351-0.45-0.621-0.957-0.797-1.5c-0.267-0.526-0.445-1.093-0.526-1.677
			c-0.104-0.553-0.163-1.114-0.177-1.677c0.033-2.337,0.947-4.576,2.56-6.268c0.856-0.781,1.84-1.408,2.909-1.854
			c1.61-0.706,3.4-0.891,5.121-0.53c0.554,0.094,1.091,0.274,1.591,0.531c0.563,0.192,1.098,0.459,1.591,0.793
			c0.462,0.327,0.904,0.681,1.324,1.061c0.816,0.83,1.448,1.823,1.854,2.914c0.495,1.047,0.737,2.196,0.707,3.353
			c-0.016,0.563-0.075,1.123-0.177,1.677c-0.085,0.584-0.264,1.15-0.53,1.677c-0.176,0.543-0.446,1.05-0.797,1.5
			c-0.349,0.53-0.703,0.97-1.056,1.414c-0.444,0.353-0.884,0.707-1.323,1.06c-0.492,0.334-1.027,0.601-1.591,0.793
			c-0.501,0.253-1.037,0.432-1.591,0.53C138.008,440.597,137.419,440.656,136.828,440.672z"/>
		<path style="fill:#F9EAB0;" d="M339.862,88.978c-1.159,0.032-2.309-0.209-3.358-0.703c-3.362-1.274-5.554-4.531-5.47-8.125
			c0.013-1.153,0.251-2.292,0.703-3.353c0.449-1.07,1.077-2.055,1.857-2.914c2.578-2.427,6.325-3.149,9.621-1.854
			c1.069,0.449,2.054,1.076,2.914,1.854c3.414,3.483,3.414,9.056,0,12.539c-0.846,0.796-1.834,1.425-2.914,1.854
			C342.168,88.77,341.019,89.01,339.862,88.978z"/>
		<path style="fill:#F9EAB0;" d="M185.819,460.974c-2.359-0.008-4.616-0.962-6.268-2.647c-0.794-0.833-1.451-1.788-1.944-2.828
			c-0.424-1.066-0.634-2.206-0.616-3.353c-0.009-1.176,0.2-2.344,0.616-3.444c0.493-1.039,1.149-1.992,1.944-2.823
			c2.086-2.068,5.064-2.962,7.944-2.383c0.571,0.096,1.133,0.245,1.677,0.444c0.53,0.263,1.06,0.526,1.5,0.793
			c0.499,0.311,0.947,0.698,1.328,1.147c0.849,0.785,1.512,1.749,1.94,2.823c0.446,1.094,0.686,2.262,0.707,3.444
			c-0.012,1.154-0.252,2.293-0.707,3.353c-0.428,1.075-1.09,2.041-1.94,2.828c-0.381,0.448-0.829,0.835-1.328,1.147
			c-0.44,0.263-0.97,0.53-1.5,0.793c-0.53,0.177-1.056,0.353-1.677,0.53C186.942,460.901,186.382,460.96,185.819,460.974z"/>
		<path style="fill:#F9EAB0;" d="M290.866,68.677c-1.147,0.017-2.287-0.192-3.354-0.616c-1.072-0.482-2.057-1.139-2.914-1.944
			c-3.414-3.447-3.414-9.001,0-12.448c3.505-3.354,9.029-3.354,12.534,0c1.658,1.627,2.582,3.858,2.56,6.181
			c0.024,2.348-0.899,4.607-2.56,6.268c-0.825,0.844-1.817,1.507-2.914,1.944C293.153,68.485,292.014,68.694,290.866,68.677z"/>
		<path style="fill:#F9EAB0;" d="M247.172,370.759v-26.483h-35.31v26.483h-35.31v-26.483h-26.483v-35.31h26.483v-44.138h-26.483
			v-35.31h26.483v-35.31h-26.483v-35.31h26.483v-26.483h35.31v26.483h35.31v-26.483h35.31v27.22
			c25.467,4.341,44.104,26.394,44.138,52.228c-0.03,11.526-3.853,22.721-10.879,31.858c17.444,15.166,24.069,39.327,16.8,61.269
			c-7.269,21.942-27.01,37.369-50.058,39.119v26.65H247.172z M278.069,308.966c12.188,0,22.069-9.881,22.069-22.069
			s-9.881-22.069-22.069-22.069h-66.207v44.138H278.069z M273.655,229.517c9.751,0,17.655-7.904,17.655-17.655
			c0-9.751-7.904-17.655-17.655-17.655h-61.793v35.31H273.655z"/>
	</g>
</g>
<g>
</g>
<g>
</g>
<g>
</g>
<g>
</g>
<g>
</g>
<g>
</g>
<g>
</g>
<g>
</g>
<g>
</g>
<g>
</g>
<g>
</g>
<g>
</g>
<g>
</g>
<g>
</g>
<g>
</g>
</svg>
