<?xml version="1.0" encoding="iso-8859-1"?>
<!-- Generator: Adobe Illustrator 19.0.0, SVG Export Plug-In . SVG Version: 6.00 Build 0)  -->
<svg version="1.1" id="Layer_1" xmlns="http://www.w3.org/2000/svg" xmlns:xlink="http://www.w3.org/1999/xlink" x="0px" y="0px"
	 viewBox="0 0 504 504" style="enable-background:new 0 0 504 504;" xml:space="preserve">
<path style="fill:#FFC52F;" d="M252,4C115.2,4,4,115.2,4,252s111.2,248,248,248s248-111.2,248-248S388.8,4,252,4z"/>
<path style="fill:#F4EFEF;" d="M102.8,244h16.8c-0.4,4-0.4,8-0.4,12s0.4,8,0.4,12h-16.8c-8.8,0-15.6,7.2-15.6,16s7.2,16,15.6,16
	h22.8c18.8,64,76,106.4,143.2,106.4c26.4,0,52.4-7.2,75.2-20.4c7.6-4.4,10-14,5.6-21.6s-14-10-21.6-5.6c-18,10.4-38.4,16-59.2,16
	c-50,0-92.8-30.8-110-74.8h97.6c8.8,0,15.6-7.2,15.6-16s-7.2-16-15.6-16H150.8c-0.4-4-0.8-8-0.8-12s0.4-8,0.8-12h105.6
	c8.8,0,15.6-7.2,15.6-16s-7.2-16-15.6-16h-97.6c17.2-44,60-74.4,110-74.4c20.8,0,41.2,5.6,59.2,16c7.6,4.4,17.2,2,21.6-5.6
	s2-17.2-5.6-21.6c-22.8-13.2-48.8-20.8-75.2-20.8c-67.6,0-124.8,42-143.2,106h-22.8c-8.8,0-15.6,7.2-15.6,16S94,244,102.8,244z"/>
<path d="M268.8,409.2c-69.6,0-126.8-40.4-146.4-103.2h-19.6c-10.8,0-19.6-8.8-19.6-20s8.8-20,19.6-20h12.4c0-2.8-0.4-5.6-0.4-8
	s0-5.2,0.4-8h-12.4c-10.8,0-19.6-8.8-19.6-20s8.8-20,19.6-20h19.6c20.4-65.2,78.8-108.8,146.4-108.8c30.4,0,55.6,6,77.2,18.4
	c4.4,2.8,8,6.8,9.2,12s0.8,10.4-2,15.2c-5.6,9.6-17.6,13.2-26.8,8c-16-9.2-35.6-14-57.2-14c-44,0-85.2,27.6-104,69.2h91.6
	c10.8,0,19.6,8.8,19.6,20s-8.8,20-19.6,20H155.2c0,2.8-0.4,5.2-0.4,8s0,5.2,0.4,8h101.6c10.8,0,19.6,8.8,19.6,20s-8.8,20-19.6,20
	h-91.6c18,39.6,57.2,63.6,104,63.6c17.2,0,36-6,57.2-18.4l0,0c4.4-2.8,10-3.2,15.2-1.6c4.8,1.6,9.2,4.8,12,9.6
	c5.6,9.6,2.4,22.4-7.2,27.6C320.8,401.6,294,409.2,268.8,409.2z M102.8,274c-6.4,0-11.6,5.6-11.6,12s5.2,12,11.6,12h22.8
	c1.6,0,3.2,1.2,4,2.8c17.6,60.8,72.4,100.4,139.6,100.4c24,0,49.2-7.2,73.2-21.2c5.6-3.2,7.6-11.2,4.4-16.8c-1.6-2.8-4.4-4.8-7.2-6
	c-3.2-0.8-6-0.8-8.8,0.8l0,0c-22.8,13.2-42.8,19.6-61.2,19.6c-51.2,0-96-29.2-113.6-74.4c-0.4-1.2-0.4-2.8,0.4-3.6s2-1.6,3.2-1.6
	h97.6c6.4,0,11.6-5.6,11.6-12s-5.2-12-11.6-12H151.6c-2,0-3.6-1.6-4-3.6c-0.4-4.4-0.8-8.4-0.8-12.4s0.4-8,0.8-12.4c0-2,2-3.6,4-3.6
	h105.6c6.4,0,11.6-5.6,11.6-12s-5.2-12-11.6-12h-97.6c-1.2,0-2.4-0.8-3.2-1.6c-0.8-1.2-0.8-2.4-0.4-3.6c18.8-47.6,64.4-80,113.6-80
	c23.2,0,44,5.2,61.2,15.2c5.6,3.2,12.8,0.8,16-4.8c1.6-2.8,2-6,1.2-9.2s-2.8-5.6-5.6-7.2c-20-11.6-44-17.2-73.2-17.2
	c-64.8,0-121.2,42.4-139.6,105.6c-0.4,1.6-2,2.8-4,2.8h-22.8c-6.4,0-11.6,5.6-11.6,12s5.2,12,11.6,12h16.8c1.2,0,2,0.4,2.8,1.2
	c0.8,0.8,1.2,2,1.2,3.2c-0.4,4.4-0.4,8-0.4,11.6s0,7.2,0.4,11.6c0,1.2-0.4,2.4-1.2,3.2c-0.8,0.8-2,1.2-2.8,1.2H102.8z"/>
<path d="M252,504C113.2,504,0,390.8,0,252S113.2,0,252,0s252,113.2,252,252S390.8,504,252,504z M252,8C117.6,8,8,117.6,8,252
	s109.6,244,244,244s244-109.6,244-244S386.4,8,252,8z"/>
<path d="M252,472.4c-121.6,0-220.4-98.8-220.4-220.4S130.4,31.6,252,31.6c51.6,0,101.6,18,141.2,51.2c1.6,1.6,2,4,0.4,5.6
	s-4,2-5.6,0.4c-38-31.6-86.4-49.2-136-49.2C134.8,39.6,39.6,134.8,39.6,252c0,117.2,95.2,212.4,212.4,212.4S464.4,369.2,464.4,252
	c0-49.6-17.6-98-49.2-136c-1.6-1.6-1.2-4.4,0.4-5.6c1.6-1.6,4.4-1.2,5.6,0.4c32.8,39.6,51.2,89.6,51.2,141.2
	C472.4,373.6,373.6,472.4,252,472.4z"/>
<g>
</g>
<g>
</g>
<g>
</g>
<g>
</g>
<g>
</g>
<g>
</g>
<g>
</g>
<g>
</g>
<g>
</g>
<g>
</g>
<g>
</g>
<g>
</g>
<g>
</g>
<g>
</g>
<g>
</g>
</svg>
