<?xml version="1.0" encoding="iso-8859-1"?>
<!-- Generator: Adobe Illustrator 19.0.0, SVG Export Plug-In . SVG Version: 6.00 Build 0)  -->
<svg version="1.1" id="Layer_1" xmlns="http://www.w3.org/2000/svg" xmlns:xlink="http://www.w3.org/1999/xlink" x="0px" y="0px"
	 viewBox="0 0 504.4 504.4" style="enable-background:new 0 0 504.4 504.4;" xml:space="preserve">
<g>
	<path style="fill:#E9B526;" d="M168.8,168.6c0,0-5.6,0-5.6-6c0-4.4,6.4-13.2,6.4-17.2h-16.8c-15.2,8-37.2,11.6-61.6,11.6
		c-24.4,0-46.4-4-61.6-12l-20.8-4c0,8,0,28,0,28c0,8,0,24,0,24c0,8,0,24,0,24c0,8,0,24,0,24c0,8,0,24,0,24c0,8,0,24,0,24
		c0,8,0,24,0,24c0,8,0,24,0,24c0,8,0,24,0,24c0,8-0.8,24-0.8,24c0,16,36.8,35.6,82.4,35.6c45.6,0,78.4-19.6,78.4-35.6c0,0,0-16,0-24
		c0,0,0-16,0-24c0,0,0-16,0-24c0,0,0-16,0-24c0,0,0-16,0-24c0,0,0-16,0-24c0,0,0-16,0-24c0,0,0-16,0-24
		C168.8,192.6,168.8,176.6,168.8,168.6z"/>
	<path style="fill:#E9B526;" d="M333.6,240.6c0,0-4.8-4.4-4.4-8.4c0.8-6,7.2-13.2,7.2-18l-18,2.4c-15.2,8-37.2,12-61.6,12
		c-24.4,0-46.4-4-61.6-12l-25.6-10c0,8,0.8,178,0.8,178c0,16,41.2,35.6,86.8,35.6s78.8-19.6,78.8-35.6
		C335.2,384.6,333.6,248.6,333.6,240.6z"/>
	<path style="fill:#E9B526;" d="M496.8,285l-14.8,3.6c-15.2,8-36.4,12-60.8,12s-46-4-60.8-12l-23.2-7.2c0,8,0,31.2,0,31.2
		c0,8,0,24,0,24c0,8,0,24,0,24c0,8,0,24,0,24c0,16,36.8,35.6,82.4,35.6s77.6-20.4,77.6-36.4C496.8,383.8,496.8,293,496.8,285z"/>
</g>
<g>
	<path style="fill:#F0C960;" d="M256.4,157.8c-45.6,0-82.8,16-82.8,35.6c0,9.2,8,16,21.2,23.6c15.2,8,37.2,12,61.6,12
		c24.4,0,46.4-4,61.6-12c13.2-8,21.2-14.8,21.2-24C339.2,173.8,302,157.8,256.4,157.8z"/>
	<path style="fill:#F0C960;" d="M91.2,86.6c-45.6,0-82.8,16-82.8,35.6c0,9.2,8,16,21.2,24c15.2,8,37.2,12,61.6,12
		c24.4,0,46.4-4,61.6-12c13.2-8,16.8-14,16.8-23.2C169.6,103.4,136.8,86.6,91.2,86.6z"/>
	<path style="fill:#F0C960;" d="M421.6,228.6c-45.6,0-82.8,16-82.8,35.6c0,9.2,8,16,21.2,24c15.2,8,37.2,12,61.6,12s46.4-4,61.6-12
		c13.2-8,18-14,18-23.2C501.2,245.4,467.6,228.6,421.6,228.6z"/>
</g>
<path d="M86.8,232.6C38,232.6,0,215.4,0,193c0-2.4,1.6-4,4-4s4,1.6,4,4c0,15.2,31.6,31.6,78.8,31.6s78.8-16.4,78.8-31.6
	c0-2.4,1.6-4,4-4s4,1.6,4,4C173.6,215.4,135.6,232.6,86.8,232.6z"/>
<path d="M86.8,256.2C38,256.2,0,239,0,216.6c0-2.4,1.6-4,4-4s4,1.6,4,4c0,15.2,31.6,31.6,78.8,31.6s78.8-16.4,78.8-31.6
	c0-2.4,1.6-4,4-4s4,1.6,4,4C173.6,239,135.6,256.2,86.8,256.2z"/>
<path d="M86.8,279.8C38,279.8,0,262.6,0,240.2c0-2.4,1.6-4,4-4s4,1.6,4,4c0,15.2,31.6,31.6,78.8,31.6s78.8-16.4,78.8-31.6
	c0-2.4,1.6-4,4-4s4,1.6,4,4C173.6,262.6,135.6,279.8,86.8,279.8z"/>
<path d="M86.8,185.4C38,185.4,0,168.2,0,145.8c0-2.4,1.6-4,4-4s4,1.6,4,4c0,15.2,31.6,31.6,78.8,31.6s78.8-16.4,78.8-31.6
	c0-2.4,1.6-4,4-4s4,1.6,4,4C173.6,167.8,135.6,185.4,86.8,185.4z"/>
<path d="M86.8,209C38,209,0,191.8,0,169.4c0-2.4,1.6-4,4-4s4,1.6,4,4C8,184.6,39.6,201,86.8,201s78.8-16.4,78.8-31.6
	c0-2.4,1.6-4,4-4s4,1.6,4,4C173.6,191.4,135.6,209,86.8,209z"/>
<path d="M86.8,303.4C38,303.4,0,286.2,0,263.8c0-2.4,1.6-4,4-4s4,1.6,4,4c0,15.2,31.6,31.6,78.8,31.6s78.8-16.4,78.8-31.6
	c0-2.4,1.6-4,4-4s4,1.6,4,4C173.6,286.2,135.6,303.4,86.8,303.4z"/>
<path d="M86.8,327C38,327,0,309.8,0,287.4c0-2.4,1.6-4,4-4s4,1.6,4,4C8,302.6,39.6,319,86.8,319s78.8-16.4,78.8-31.6
	c0-2.4,1.6-4,4-4s4,1.6,4,4C173.6,309.8,135.6,327,86.8,327z"/>
<path d="M86.8,351C38,351,0,333.8,0,311.4c0-2.4,1.6-4,4-4s4,1.6,4,4C8,326.6,39.6,343,86.8,343s78.8-16.4,78.8-31.6
	c0-2.4,1.6-4,4-4s4,1.6,4,4C173.6,333.4,135.6,351,86.8,351z"/>
<path d="M86.8,374.6C38,374.6,0,357.4,0,335c0-2.4,1.6-4,4-4s4,1.6,4,4c0,15.2,31.6,31.6,78.8,31.6s78.8-16.4,78.8-31.6
	c0-2.4,1.6-4,4-4s4,1.6,4,4C173.6,357,135.6,374.6,86.8,374.6z"/>
<path d="M86.8,398.2C38,398.2,0,381,0,358.6c0-2.4,1.6-4,4-4s4,1.6,4,4c0,15.2,31.6,31.6,78.8,31.6s78.8-16.4,78.8-31.6
	c0-2.4,1.6-4,4-4s4,1.6,4,4C173.6,380.6,135.6,398.2,86.8,398.2z"/>
<path d="M86.8,421.8C38,421.8,0,404.6,0,382.2c0-2.4,1.6-4,4-4s4,1.6,4,4c0,15.2,31.6,31.6,78.8,31.6s78.8-16.4,78.8-31.6
	c0-2.4,1.6-4,4-4s4,1.6,4,4C173.6,404.2,135.6,421.8,86.8,421.8z"/>
<path d="M252.4,256.2c-48.8,0-86.8-17.2-86.8-39.6c0-2.4,1.6-4,4-4s4,1.6,4,4c0,15.2,31.6,31.6,78.8,31.6s78.8-16.4,78.8-31.6
	c0-2.4,1.6-4,4-4s4,1.6,4,4C339.2,239,300.8,256.2,252.4,256.2z"/>
<path d="M252.4,279.8c-48.8,0-86.8-17.2-86.8-39.6c0-2.4,1.6-4,4-4s4,1.6,4,4c0,15.2,31.6,31.6,78.8,31.6s78.8-16.4,78.8-31.6
	c0-2.4,1.6-4,4-4s4,1.6,4,4C339.2,262.6,300.8,279.8,252.4,279.8z"/>
<path d="M252.4,303.4c-48.8,0-86.8-17.2-86.8-39.6c0-2.4,1.6-4,4-4s4,1.6,4,4c0,15.2,31.6,31.6,78.8,31.6s78.8-16.4,78.8-31.6
	c0-2.4,1.6-4,4-4s4,1.6,4,4C339.2,286.2,300.8,303.4,252.4,303.4z"/>
<path d="M252.4,327c-48.8,0-86.8-17.2-86.8-39.6c0-2.4,1.6-4,4-4s4,1.6,4,4c0,15.2,31.6,31.6,78.8,31.6s78.8-16.4,78.8-31.6
	c0-2.4,1.6-4,4-4s4,1.6,4,4C339.2,309.8,300.8,327,252.4,327z"/>
<path d="M252.4,351c-48.8,0-86.8-17.2-86.8-39.6c0-2.4,1.6-4,4-4s4,1.6,4,4c0,15.2,31.6,31.6,78.8,31.6s78.8-16.4,78.8-31.6
	c0-2.4,1.6-4,4-4s4,1.6,4,4C339.2,333.4,300.8,351,252.4,351z"/>
<path d="M252.4,374.6c-48.8,0-86.8-17.2-86.8-39.6c0-2.4,1.6-4,4-4s4,1.6,4,4c0,15.2,31.6,31.6,78.8,31.6s78.8-16.4,78.8-31.6
	c0-2.4,1.6-4,4-4s4,1.6,4,4C339.2,357,300.8,374.6,252.4,374.6z"/>
<path d="M252.4,398.2c-48.8,0-86.8-17.2-86.8-39.6c0-2.4,1.6-4,4-4s4,1.6,4,4c0,15.2,31.6,31.6,78.8,31.6s78.8-16.4,78.8-31.6
	c0-2.4,1.6-4,4-4s4,1.6,4,4C339.2,380.6,300.8,398.2,252.4,398.2z"/>
<path d="M252.4,421.8c-48.8,0-86.8-17.2-86.8-39.6c0-2.4,1.6-4,4-4s4,1.6,4,4c0,15.2,31.6,31.6,78.8,31.6s78.8-16.4,78.8-31.6
	c0-2.4,1.6-4,4-4s4,1.6,4,4C339.2,404.2,300.8,421.8,252.4,421.8z"/>
<path d="M417.6,327c-48.8,0-86.8-17.2-86.8-39.6c0-2.4,1.6-4,4-4s4,1.6,4,4c0,15.2,31.6,31.6,78.8,31.6s78.8-16.4,78.8-31.6
	c0-2.4,1.6-4,4-4s4,1.6,4,4C504.4,309.8,466.4,327,417.6,327z"/>
<path d="M417.6,351c-48.8,0-86.8-17.2-86.8-39.6c0-2.4,1.6-4,4-4s4,1.6,4,4c0,15.2,31.6,31.6,78.8,31.6s78.8-16.4,78.8-31.6
	c0-2.4,1.6-4,4-4s4,1.6,4,4C504.4,333.4,466.4,351,417.6,351z"/>
<path d="M417.6,374.6c-48.8,0-86.8-17.2-86.8-39.6c0-2.4,1.6-4,4-4s4,1.6,4,4c0,15.2,31.6,31.6,78.8,31.6s78.8-16.4,78.8-31.6
	c0-2.4,1.6-4,4-4s4,1.6,4,4C504.4,357,466.4,374.6,417.6,374.6z"/>
<path d="M417.6,398.2c-48.8,0-86.8-17.2-86.8-39.6c0-2.4,1.6-4,4-4s4,1.6,4,4c0,15.2,31.6,31.6,78.8,31.6s78.8-16.4,78.8-31.6
	c0-2.4,1.6-4,4-4s4,1.6,4,4C504.4,380.6,466.4,398.2,417.6,398.2z"/>
<path d="M417.6,421.8c-48.8,0-86.8-17.2-86.8-39.6c0-2.4,1.6-4,4-4s4,1.6,4,4c0,15.2,31.6,31.6,78.8,31.6s78.8-16.4,78.8-31.6
	c0-2.4,1.6-4,4-4s4,1.6,4,4C504.4,404.2,466.4,421.8,417.6,421.8z"/>
<path d="M252.4,232.6c-48.8,0-86.8-17.2-86.8-39.6c0-22,38-39.6,86.8-39.6s86.8,17.2,86.8,39.6C339.2,215.4,300.8,232.6,252.4,232.6
	z M252.4,161.4c-47.2,0-78.8,16.4-78.8,31.6s31.6,31.6,78.8,31.6s78.8-16.4,78.8-31.6S299.2,161.4,252.4,161.4z"/>
<path d="M86.8,161.8C38,161.8,0,144.6,0,122.2s38-39.6,86.8-39.6s86.8,17.2,86.8,39.6S135.6,161.8,86.8,161.8z M86.8,90.6
	C39.6,90.6,8,107,8,122.2s31.6,31.6,78.8,31.6s78.8-16.4,78.8-31.6S134,90.6,86.8,90.6z"/>
<path d="M417.6,303.4c-48.8,0-86.8-17.2-86.8-39.6c0-22,38-39.6,86.8-39.6s86.8,17.2,86.8,39.6C504.4,286.2,466.4,303.4,417.6,303.4
	z M417.6,232.6c-47.2,0-78.8,16.4-78.8,31.6s31.6,31.6,78.8,31.6s78.8-16.4,78.8-31.6S464.8,232.6,417.6,232.6z"/>
<g>
</g>
<g>
</g>
<g>
</g>
<g>
</g>
<g>
</g>
<g>
</g>
<g>
</g>
<g>
</g>
<g>
</g>
<g>
</g>
<g>
</g>
<g>
</g>
<g>
</g>
<g>
</g>
<g>
</g>
</svg>
