<?xml version="1.0" encoding="iso-8859-1"?>
<!-- Generator: Adobe Illustrator 19.0.0, SVG Export Plug-In . SVG Version: 6.00 Build 0)  -->
<svg version="1.1" id="Layer_1" xmlns="http://www.w3.org/2000/svg" xmlns:xlink="http://www.w3.org/1999/xlink" x="0px" y="0px"
	 viewBox="0 0 504 504" style="enable-background:new 0 0 504 504;" xml:space="preserve">
<path style="fill:#BC3F2C;" d="M252,4C115.2,4,4,115.2,4,252s111.2,248,248,248s248-111.2,248-248S388.8,4,252,4z"/>
<path style="fill:#F4EFEF;" d="M141.6,328c-8.8,0-11.6,7.2-11.6,16s3.2,16,11.6,16H160v34c0,8.8,7.2,11.6,16,11.6s16-3.2,16-11.6
	v-34h95.6c8.8,0,15.6-7.2,15.6-16s-11.2-16-19.6-16H192v-28h92.4c52.4,0,95.2-41.6,95.2-93.2c0-52.4-42.8-94.8-95.2-94.8H177.2
	c-8.8,0-17.2,4.8-17.2,13.6V268h-18.4c-8.8,0-11.6,7.2-11.6,16s3.2,16,11.6,16H160v28H141.6z M192,140h92.4
	c35.2,0,67.6,29.6,67.6,64.8c0,35.2-28,63.2-63.6,63.2H192V140z"/>
<path d="M174,409.6c-11.2,0-20-8.8-20-19.6v-24h-8.4c-10.8,0-19.6-8.8-19.6-20s8.8-20,19.6-20h8.4v-20h-8.4
	c-10.8,0-19.6-8.8-19.6-20s8.8-20,19.6-20h8.4V121.6c0-2.8,1.2-5.2,2.8-7.2c4.8-4.8,14-4.8,21.6-4.4h2.4H288
	c54.8,0,99.2,44.4,99.2,98.8c0,53.6-44.4,97.2-99.2,97.2h-94v20h93.6c10.8,0,19.6,8.8,19.6,20s-8.8,20-19.6,20H194v24
	C194,400.8,185.2,409.6,174,409.6z M145.6,334c-6.4,0-11.6,5.6-11.6,12s5.2,12,11.6,12H158c2.4,0,4,1.6,4,4v28
	c0,6.4,5.6,11.6,12,11.6s12-5.2,12-11.6v-28c0-2.4,1.6-4,4-4h97.6c6.4,0,11.6-5.6,11.6-12s-5.2-12-11.6-12H190c-2.4,0-4-1.6-4-4v-28
	c0-2.4,1.6-4,4-4h98c50.4,0,91.2-40,91.2-89.2c0-50-40.8-90.8-91.2-90.8H178.4c-5.2,0-13.6,0-16,2.4c-0.4,0.4-0.4,0.8-0.4,1.6v148.4
	c0,2.4-1.6,4-4,4h-12.4c-6.4,0-11.6,5.6-11.6,12s5.2,12,11.6,12H158c2.4,0,4,1.6,4,4v28c0,2.4-1.6,4-4,4h-12.4V334z M288,274h-98
	c-2.4,0-4-1.6-4-4V142c0-2.4,1.6-4,4-4h98c37.2,0,67.6,30.8,67.6,68.8C356,244.4,326,274,288,274z M194,266h94
	c33.6,0,59.6-26,59.6-59.2c0-33.6-26.8-60.8-59.6-60.8h-94V266z"/>
<path d="M252,504C113.2,504,0,390.8,0,252S113.2,0,252,0s252,113.2,252,252S390.8,504,252,504z M252,8C117.6,8,8,117.6,8,252
	s109.6,244,244,244s244-109.6,244-244S386.4,8,252,8z"/>
<path d="M252,472.4c-121.6,0-220.4-98.8-220.4-220.4S130.4,31.6,252,31.6c51.6,0,101.6,18,141.2,51.2c1.6,1.6,2,4,0.4,5.6
	s-4,2-5.6,0.4c-38-31.6-86.4-49.2-136-49.2C134.8,39.6,39.6,134.8,39.6,252c0,117.2,95.2,212.4,212.4,212.4S464.4,369.2,464.4,252
	c0-49.6-17.6-98-49.2-136c-1.6-1.6-1.2-4.4,0.4-5.6c1.6-1.6,4.4-1.2,5.6,0.4c32.8,39.6,51.2,89.6,51.2,141.2
	C472.4,373.6,373.6,472.4,252,472.4z"/>
<g>
</g>
<g>
</g>
<g>
</g>
<g>
</g>
<g>
</g>
<g>
</g>
<g>
</g>
<g>
</g>
<g>
</g>
<g>
</g>
<g>
</g>
<g>
</g>
<g>
</g>
<g>
</g>
<g>
</g>
</svg>
