<?xml version="1.0" encoding="iso-8859-1"?>
<!-- Generator: Adobe Illustrator 19.0.0, SVG Export Plug-In . SVG Version: 6.00 Build 0)  -->
<svg version="1.1" id="Capa_1" xmlns="http://www.w3.org/2000/svg" xmlns:xlink="http://www.w3.org/1999/xlink" x="0px" y="0px"
	 viewBox="0 0 511.966 511.966" style="enable-background:new 0 0 511.966 511.966;" xml:space="preserve">
<g>
	<g transform="translate(1 1)">
		<path style="fill:#3F51B5;" d="M502.433,254.983c0,2.901-0.085,5.717-0.256,8.533c-0.509,17.306-3.059,34.491-7.595,51.2
			c-1.536,5.803-3.328,11.52-5.291,17.067c-6.361,18.085-14.992,35.289-25.685,51.2c-3.925,5.888-8.192,11.605-12.629,17.067
			c-43.695,54.015-109.468,85.38-178.944,85.333c-5.717,0-11.435-0.171-17.067-0.683V25.266c5.632-0.512,11.349-0.683,17.067-0.683
			c69.476-0.047,135.249,31.318,178.944,85.333c4.495,5.472,8.71,11.168,12.629,17.067c10.694,15.911,19.324,33.115,25.685,51.2
			c1.963,5.547,3.755,11.264,5.291,17.067c4.536,16.709,7.085,33.894,7.595,51.2C502.348,249.266,502.433,252.082,502.433,254.983z"
			/>
		<circle style="fill:#0377BC;" cx="237.9" cy="254.983" r="230.4"/>
		<ellipse style="fill:#02A9F4;" cx="225.1" cy="254.983" rx="217.6" ry="230.4"/>
		<path style="fill:#CFD8DC;" d="M237.9,417.117c-89.544,0-162.133-72.59-162.133-162.133S148.356,92.85,237.9,92.85
			s162.133,72.59,162.133,162.133C399.931,344.485,327.401,417.015,237.9,417.117z"/>
		<polygon style="fill:#FEC108;" points="306.166,234.759 237.9,201.053 237.9,126.983 		"/>
		<polygon style="fill:#FFEB3A;" points="237.9,126.983 237.9,201.053 169.633,234.759 		"/>
		<polygon style="fill:#FEC108;" points="306.166,275.207 237.9,382.983 237.9,308.914 		"/>
		<polygon style="fill:#FFEB3A;" points="237.9,308.914 237.9,382.983 169.633,275.207 		"/>
		<polygon style="fill:#F57C00;" points="306.166,234.776 237.9,268.457 169.633,234.776 237.9,201.087 		"/>
	</g>
	<g>
		<path d="M409.566,255.983c-0.268-80.314-56.264-149.674-134.717-166.867c-11.214-2.366-22.635-3.616-34.096-3.729l-0.504,0.025
			c-0.275-0.029-1.108-0.096-1.383-0.096c-93.882-0.002-170.131,75.835-170.637,169.715
			c-0.507,93.88,74.919,170.536,168.796,171.547l0.929,0.012c0.35,0.029,0.796,0.058,0.983,0.058
			c12.639,0.008,25.241-1.373,37.579-4.117c1.475-0.329,2.946-0.708,5.058-1.254C356.952,401.832,409.609,333.829,409.566,255.983z
			 M272.787,405.879c-10.848,2.418-21.923,3.673-33.037,3.742l-0.563-0.054c-0.233-0.021-0.466-0.033-0.7-0.037l-1.258-0.017
			c-84.313-0.937-152.106-69.669-151.884-153.986s68.376-152.691,152.692-153.185c0.237,0.025,1.029,0.092,1.267,0.096l1.242,0.017
			c84.273,0.634,152.189,69.254,151.954,153.529c-0.001,70.201-47.576,131.478-115.587,148.875
			C275.391,405.25,274.087,405.587,272.787,405.879z"/>
		<path d="M238.9,68.25c1.115-0.014,2.216-0.246,3.242-0.683c1.033-0.434,1.986-1.04,2.817-1.791c1.557-1.637,2.44-3.8,2.475-6.059
			c-0.013-1.116-0.245-2.219-0.683-3.246c-0.413-1.043-1.021-1.997-1.791-2.813c-0.83-0.754-1.782-1.362-2.817-1.796
			c-3.178-1.338-6.849-0.629-9.301,1.796c-0.773,0.814-1.383,1.769-1.796,2.813c-0.436,1.027-0.667,2.13-0.679,3.246
			c-0.022,2.27,0.87,4.453,2.475,6.058S236.63,68.272,238.9,68.25z"/>
		<path d="M244.958,446.191c-0.83-0.754-1.782-1.362-2.817-1.796c-3.183-1.294-6.828-0.59-9.301,1.796
			c-0.754,0.828-1.362,1.78-1.796,2.813c-0.436,1.027-0.667,2.13-0.679,3.246c-0.022,2.27,0.87,4.453,2.475,6.058
			s3.788,2.497,6.058,2.475c1.115-0.014,2.216-0.246,3.242-0.683c1.033-0.434,1.986-1.04,2.817-1.792
			c1.557-1.637,2.441-3.799,2.475-6.058c-0.013-1.116-0.245-2.219-0.683-3.246C246.337,447.961,245.729,447.007,244.958,446.191z"/>
		<path d="M182.066,72.429c1.614,1.592,3.792,2.481,6.059,2.475c2.245,0.022,4.403-0.872,5.975-2.475
			c1.629-1.596,2.55-3.778,2.558-6.059c-0.014-0.544-0.071-1.086-0.171-1.621c-0.119-0.555-0.29-1.098-0.513-1.621
			c-0.204-0.509-0.461-0.994-0.767-1.45c-0.301-0.482-0.675-0.915-1.108-1.284c-3.374-3.198-8.66-3.198-12.033,0
			c-1.602,1.573-2.496,3.73-2.475,5.975c-0.017,1.138,0.186,2.268,0.596,3.329C180.633,70.722,181.271,71.648,182.066,72.429z"/>
		<path d="M295.729,451.567c0.431-0.346,0.781-0.783,1.025-1.279c0.333-0.455,0.619-0.942,0.854-1.454
			c0.194-0.525,0.336-1.068,0.425-1.621c0.141-0.528,0.199-1.075,0.171-1.621c0.023-2.27-0.869-4.454-2.475-6.059
			c-1.578-1.628-3.748-2.546-6.015-2.546c-2.267,0-4.437,0.919-6.015,2.546c-1.63,1.596-2.553,3.778-2.562,6.059
			c0.011,2.256,0.935,4.412,2.562,5.975c0.756,0.823,1.69,1.464,2.729,1.875C289.616,454.821,293.325,454.073,295.729,451.567
			L295.729,451.567z"/>
		<path d="M132.912,89.242c0.188,0.543,0.447,1.059,0.771,1.533l1.025,1.283c0.382,0.392,0.812,0.735,1.279,1.021
			c0.492,0.317,1.005,0.602,1.533,0.854c0.501,0.182,1.015,0.325,1.538,0.429c0.558,0.138,1.134,0.194,1.708,0.167
			c1.109,0.018,2.211-0.184,3.242-0.596c1.02-0.495,1.967-1.125,2.817-1.875c1.57-1.63,2.456-3.799,2.475-6.063
			c0.029-1.119-0.205-2.229-0.683-3.242c-0.777-2.143-2.465-3.831-4.608-4.608c-1.557-0.68-3.287-0.86-4.95-0.513
			c-0.535,0.095-1.053,0.268-1.538,0.513c-0.543,0.188-1.058,0.448-1.533,0.771c-0.429,0.341-0.854,0.679-1.279,1.021
			c-0.754,0.83-1.362,1.782-1.796,2.817c-0.436,1.026-0.667,2.127-0.679,3.242c0.013,0.573,0.07,1.144,0.171,1.708
			C132.495,88.239,132.667,88.758,132.912,89.242z"/>
		<path d="M343.092,419.909c-2.043-2.014-4.956-2.878-7.767-2.304c-0.536,0.091-1.054,0.264-1.538,0.512
			c-1.054,0.391-2.013,1.002-2.813,1.792c-0.792,0.801-1.404,1.761-1.796,2.817c-0.437,1.026-0.667,2.127-0.679,3.242
			c0.032,2.259,0.916,4.423,2.475,6.059c0.425,0.341,0.85,0.683,1.279,1.025c0.475,0.322,0.991,0.58,1.533,0.767
			c0.485,0.245,1.003,0.418,1.538,0.512c0.565,0.094,1.136,0.151,1.708,0.171c2.27,0.022,4.453-0.87,6.058-2.475
			c1.605-1.605,2.497-3.788,2.475-6.058c0.03-1.119-0.205-2.23-0.683-3.242C344.491,421.671,343.881,420.711,343.092,419.909z"/>
		<path d="M96.816,125.079c1.055,0.44,2.186,0.672,3.329,0.683c1.115-0.011,2.217-0.244,3.242-0.683
			c1.04-0.412,1.975-1.053,2.733-1.875c1.635-1.575,2.558-3.747,2.558-6.017c0-2.27-0.924-4.442-2.558-6.017
			c-1.578-1.628-3.749-2.547-6.017-2.547c-2.268,0-4.438,0.919-6.017,2.547c-3.3,3.332-3.3,8.701,0,12.033
			C94.844,124.026,95.777,124.667,96.816,125.079z"/>
		<path d="M371.679,388.762c-1.629,1.56-2.554,3.715-2.562,5.971c0.008,2.281,0.931,4.464,2.562,6.059
			c1.571,1.603,3.727,2.497,5.971,2.475c1.138,0.017,2.268-0.186,3.329-0.596c1.023-0.444,1.949-1.082,2.729-1.879
			c1.606-1.605,2.497-3.789,2.475-6.059c0.022-2.244-0.872-4.4-2.475-5.971C380.355,385.516,375.032,385.516,371.679,388.762z"/>
		<path d="M61.062,161.092c0.17,0.525,0.431,1.015,0.771,1.45c0.341,0.513,0.679,0.937,1.021,1.367
			c1.637,1.556,3.8,2.44,6.059,2.475c2.263-0.019,4.432-0.904,6.062-2.474c0.386-0.419,0.728-0.877,1.021-1.367
			c0.34-0.435,0.601-0.926,0.771-1.45c0.245-0.485,0.418-1.003,0.513-1.538c0.097-0.563,0.152-1.133,0.167-1.704
			c0.022-3.468-2.057-6.604-5.26-7.933c-3.203-1.33-6.892-0.589-9.332,1.875c-1.558,1.636-2.441,3.8-2.475,6.059
			c0.016,0.571,0.073,1.141,0.171,1.704C60.644,160.089,60.817,160.607,61.062,161.092z"/>
		<path d="M402.825,348.058c-1.559,1.635-2.443,3.799-2.475,6.059c0.016,2.262,0.902,4.432,2.475,6.059
			c3.365,3.3,8.752,3.3,12.117,0c1.573-1.627,2.459-3.796,2.475-6.059c0.02-3.467-2.059-6.601-5.261-7.931
			C408.954,344.856,405.266,345.596,402.825,348.058L402.825,348.058z"/>
		<path d="M55.346,199.15c-3.389-3.158-8.644-3.158-12.033,0c-0.821,0.758-1.462,1.691-1.875,2.729
			c-0.429,1.059-0.661,2.187-0.683,3.329c0.045,2.273,0.961,4.441,2.558,6.059c3.332,3.3,8.701,3.3,12.033,0
			c0.778-0.828,1.414-1.78,1.88-2.817c0.41-1.031,0.612-2.132,0.596-3.242c0.009-1.137-0.193-2.266-0.596-3.329
			C56.778,200.858,56.14,199.932,55.346,199.15z"/>
		<path d="M428.508,315.287c2.245,0.022,4.403-0.872,5.975-2.475c2.506-2.404,3.254-6.113,1.875-9.3
			c-0.411-1.04-1.052-1.973-1.875-2.729c-3.355-3.246-8.679-3.246-12.033,0c-1.603,1.571-2.497,3.727-2.475,5.971
			c-0.007,2.267,0.882,4.445,2.475,6.059C424.046,314.432,426.235,315.326,428.508,315.287z"/>
		<path d="M48.692,262.042c0.752-0.831,1.358-1.783,1.792-2.817c0.911-2.066,0.911-4.421,0-6.487
			c-0.434-1.032-1.04-1.983-1.792-2.813c-3.421-3.158-8.695-3.158-12.117,0c-0.773,0.814-1.383,1.769-1.796,2.813
			c-0.906,2.068-0.906,4.42,0,6.487c0.414,1.045,1.023,2.001,1.795,2.817C39.939,265.342,45.326,265.342,48.692,262.042
			L48.692,262.042z"/>
		<path d="M431.921,248.129c-1.033,0.434-1.984,1.041-2.813,1.796c-3.3,3.365-3.3,8.752,0,12.117
			c0.83,0.752,1.781,1.358,2.813,1.792c1.027,0.438,2.13,0.67,3.246,0.683c3.45-0.014,6.556-2.096,7.879-5.282
			c1.323-3.187,0.606-6.856-1.82-9.31C438.768,247.507,435.101,246.8,431.921,248.129z"/>
		<path d="M43.312,300.783c-3.271,3.331-3.247,8.677,0.055,11.978c3.302,3.301,8.648,3.324,11.978,0.051
			c1.606-1.605,2.497-3.789,2.475-6.059c0.022-2.244-0.872-4.4-2.475-5.971C51.991,297.537,46.667,297.537,43.312,300.783z"/>
		<path d="M428.508,213.742c4.666-0.111,8.423-3.867,8.533-8.533c-0.012-1.115-0.244-2.217-0.683-3.242
			c-0.388-1.077-1.032-2.043-1.875-2.817c-1.578-1.63-3.749-2.55-6.017-2.55s-4.439,0.92-6.017,2.55
			c-1.592,1.614-2.481,3.792-2.475,6.059c-0.022,2.245,0.872,4.403,2.475,5.975C424.036,212.826,426.224,213.75,428.508,213.742z"/>
		<path d="M74.974,348.058c-0.406-0.368-0.835-0.71-1.283-1.025c-0.474-0.324-0.99-0.583-1.533-0.77
			c-0.484-0.246-1.003-0.417-1.538-0.508c-2.808-0.518-5.695,0.338-7.767,2.304c-0.752,0.83-1.358,1.781-1.792,2.813
			c-0.438,1.027-0.67,2.13-0.683,3.246c-0.022,2.27,0.87,4.453,2.475,6.058c1.605,1.605,3.788,2.497,6.058,2.475
			c2.263-0.019,4.433-0.904,6.062-2.475c1.556-1.637,2.438-3.8,2.471-6.059c0.031-1.12-0.201-2.232-0.679-3.246
			C76.332,349.839,75.726,348.888,74.974,348.058z"/>
		<path d="M408.883,166.383c4.024-0.039,7.462-2.911,8.218-6.863c0.756-3.953-1.38-7.89-5.105-9.412
			c-3.725-1.522-8.007-0.205-10.235,3.146c-2.227,3.352-1.783,7.809,1.063,10.654C404.461,165.465,406.624,166.349,408.883,166.383z
			"/>
		<path d="M103.387,386.883c-2.107-0.854-4.464-0.854-6.571,0c-1.039,0.414-1.972,1.056-2.729,1.879c-3.3,3.331-3.3,8.698,0,12.029
			c0.781,0.796,1.707,1.434,2.729,1.879c1.061,0.41,2.192,0.612,3.329,0.596c1.109,0.017,2.211-0.186,3.242-0.596
			c1.023-0.445,1.951-1.083,2.733-1.879c1.635-1.574,2.558-3.745,2.558-6.015c0-2.269-0.924-4.441-2.558-6.015
			C105.362,387.939,104.428,387.297,103.387,386.883z"/>
		<path d="M377.65,125.762c1.143-0.011,2.274-0.243,3.329-0.683c1.04-0.411,1.973-1.052,2.729-1.875
			c1.603-1.572,2.497-3.73,2.475-5.975c0.006-2.267-0.883-4.444-2.475-6.059c-3.388-3.158-8.641-3.158-12.029,0
			c-1.632,1.595-2.555,3.777-2.562,6.059C369.231,121.894,372.985,125.648,377.65,125.762L377.65,125.762z"/>
		<path d="M144.008,418.029c-3.199-1.267-6.844-0.53-9.3,1.879c-1.559,1.635-2.443,3.799-2.475,6.059
			c0.012,1.115,0.243,2.216,0.679,3.242c0.434,1.034,1.041,1.987,1.796,2.817c1.635,1.559,3.799,2.443,6.059,2.475
			c1.115-0.014,2.216-0.246,3.242-0.683c2.143-0.777,3.831-2.465,4.608-4.608c0.479-1.012,0.713-2.123,0.683-3.242
			c-0.018-2.262-0.904-4.431-2.475-6.059C145.976,419.156,145.028,418.524,144.008,418.029z"/>
		<path d="M332.254,93.079c0.475,0.323,0.991,0.582,1.533,0.771c0.485,0.245,1.003,0.418,1.538,0.513
			c0.559,0.134,1.134,0.19,1.708,0.167c2.266,0.008,4.444-0.88,6.059-2.471c3.3-3.366,3.3-8.754,0-12.121
			c-2.066-1.975-4.958-2.833-7.767-2.304c-0.535,0.095-1.053,0.268-1.538,0.513c-0.543,0.188-1.058,0.448-1.533,0.771
			c-0.429,0.341-0.854,0.679-1.279,1.021c-3.3,3.366-3.3,8.754,0,12.121C331.38,92.425,331.807,92.766,332.254,93.079z"/>
		<path d="M194.1,439.533c-2.413-2.506-6.117-3.274-9.327-1.934c-3.21,1.341-5.268,4.515-5.182,7.992
			c-0.022,2.245,0.872,4.403,2.475,5.975c1.606,1.614,3.782,2.533,6.059,2.558c4.666-0.111,8.423-3.867,8.533-8.533
			c-0.02-1.142-0.252-2.271-0.683-3.329C195.561,441.224,194.921,440.292,194.1,439.533z"/>
		<path d="M281.821,69.7c0.169,0.524,0.428,1.015,0.767,1.45c0.346,0.448,0.717,0.875,1.113,1.279
			c0.781,0.795,1.707,1.433,2.729,1.879c3.201,1.242,6.832,0.509,9.3-1.879c0.394-0.382,0.738-0.812,1.025-1.279
			c0.334-0.453,0.62-0.938,0.854-1.45c0.182-0.529,0.324-1.071,0.425-1.621c0.141-0.558,0.198-1.134,0.171-1.708
			c0.021-2.245-0.872-4.402-2.475-5.975c-2.458-2.407-6.102-3.141-9.3-1.875c-1.039,0.412-1.971,1.053-2.729,1.875
			c-1.627,1.563-2.551,3.719-2.562,5.975c0.016,0.573,0.073,1.144,0.171,1.708C281.402,68.641,281.575,69.186,281.821,69.7z"/>
		<path d="M500.942,184.229c-7.996-25.303-20.159-49.094-35.99-70.391c-0.121-0.137-0.186-0.315-0.315-0.443
			C419.601,52.785,348.544,17.055,273.033,17.05c-6.489,0-12.147,0.23-17.333,0.684c-4.529-0.307-9.041-0.521-13.496-0.559
			c-1.099-0.098-2.201-0.14-3.304-0.125C107.607,17.04,0.914,122.99,0.006,254.28s104.309,238.705,235.59,240.512
			c1.099,0.098,2.201,0.14,3.304,0.125c5.711,0,11.396-0.271,17.062-0.667c5.119,0.439,10.686,0.667,17.071,0.667
			c75.511-0.005,146.568-35.735,191.604-96.346c0.129-0.128,0.194-0.306,0.315-0.443c15.831-21.297,27.995-45.088,35.99-70.391
			c0.084-0.184,0.123-0.38,0.194-0.572c14.441-46.356,14.441-96.008,0-142.365C501.065,184.609,501.026,184.413,500.942,184.229z
			 M486.664,315.717h-16.391c4.243-16.756,6.657-33.923,7.201-51.2h17.209C494.029,281.839,491.337,299.024,486.664,315.717z
			 M454.082,383.983h-13.491c10.189-16.03,18.428-33.218,24.543-51.2h16.046C474.429,350.963,465.318,368.177,454.082,383.983
			L454.082,383.983z M481.18,179.183h-16.309c-6.199-17.987-14.514-35.175-24.769-51.2h13.98
			C465.318,143.79,474.428,161.004,481.18,179.183z M477.457,247.45c-0.571-17.284-3.038-34.454-7.357-51.2h16.564
			c4.673,16.693,7.365,33.878,8.019,51.2H477.457z M440.689,110.917h-12.523c-16.399-21.421-36.278-39.936-58.809-54.774
			C396.606,69.369,420.876,88.006,440.689,110.917z M236.512,477.767C114.46,476.469,16.386,376.812,17.043,254.754
			C17.7,132.697,116.84,34.101,238.9,34.117h0.35c0.463,0,0.996,0.009,2.033,0.083c121.7,0.996,219.756,100.079,219.483,221.783
			c0.019,101.313-68.586,189.774-166.717,214.967c-2.104,0.542-4.212,1.087-6.325,1.558c-16.03,3.567-32.403,5.358-48.825,5.342
			C238.316,477.846,237.808,477.858,236.512,477.767L236.512,477.767z M372.037,454.45c21.699-14.577,40.858-32.616,56.713-53.4
			h11.939C421.529,423.18,398.202,441.325,372.037,454.45z"/>
		<path d="M303.391,268.542L238.9,300.362l-64.492-31.821c-3.43-1.691-7.565-0.894-10.121,1.95
			c-2.556,2.844-2.908,7.041-0.862,10.271l68.267,107.788c1.565,2.47,4.285,3.966,7.208,3.966c2.924,0,5.644-1.497,7.208-3.966
			l68.267-107.788c2.046-3.23,1.693-7.427-0.862-10.271C310.956,267.648,306.821,266.851,303.391,268.542L303.391,268.542z
			 M230.366,315.185v39.375l-36.275-57.273L230.366,315.185z M247.433,354.56v-39.375l36.275-17.898L247.433,354.56z"/>
		<path d="M315.516,234.47c-0.025-0.288-0.066-0.574-0.121-0.858c-0.213-0.84-0.553-1.642-1.008-2.379l-0.012-0.029l-68.267-107.788
			c-0.115-0.182-0.333-0.241-0.462-0.41c-1.525-2.226-4.049-3.557-6.747-3.557s-5.222,1.331-6.747,3.557
			c-0.128,0.169-0.346,0.228-0.461,0.41l-68.267,107.788l-0.012,0.029c-0.455,0.737-0.795,1.539-1.008,2.379
			c-0.101,0.72-0.203,1.439-0.305,2.159c0,0.133,0.048,0.255,0.055,0.387c0.086,0.855,0.26,1.699,0.52,2.518
			c0.116,0.309,0.25,0.611,0.402,0.905c0.251,0.495,0.551,0.963,0.894,1.399c0.122,0.157,0.182,0.345,0.317,0.495
			c0.084,0.094,0.199,0.141,0.286,0.23c0.414,0.408,0.869,0.773,1.358,1.089c0.235,0.179,0.48,0.345,0.732,0.499
			c0.07,0.037,0.122,0.097,0.194,0.133l68.267,33.687c2.38,1.172,5.17,1.172,7.55,0l68.267-33.687
			c0.875-0.452,1.663-1.053,2.331-1.776c0.071-0.073,0.172-0.098,0.24-0.174c0.135-0.15,0.194-0.339,0.317-0.495
			c0.344-0.436,0.643-0.904,0.894-1.399c0.152-0.293,0.286-0.595,0.402-0.905c0.26-0.819,0.434-1.663,0.52-2.518
			c0.006-0.132,0.055-0.254,0.055-0.387C315.673,235.333,315.611,234.898,315.516,234.47z M247.433,196.781v-39.375l36.275,57.273
			L247.433,196.781z M230.366,157.406v39.375l-36.275,17.898L230.366,157.406z M238.9,259.942l-48.981-24.17l48.981-24.168
			l48.981,24.168L238.9,259.942z"/>
	</g>
</g>
<g>
</g>
<g>
</g>
<g>
</g>
<g>
</g>
<g>
</g>
<g>
</g>
<g>
</g>
<g>
</g>
<g>
</g>
<g>
</g>
<g>
</g>
<g>
</g>
<g>
</g>
<g>
</g>
<g>
</g>
</svg>
