<?xml version="1.0" encoding="iso-8859-1"?>
<!-- Generator: Adobe Illustrator 19.0.0, SVG Export Plug-In . SVG Version: 6.00 Build 0)  -->
<svg version="1.1" id="Capa_1" xmlns="http://www.w3.org/2000/svg" xmlns:xlink="http://www.w3.org/1999/xlink" x="0px" y="0px"
	 viewBox="0 0 512 512" style="enable-background:new 0 0 512 512;" xml:space="preserve">
<path style="fill:#353535;" d="M512,256c0,141.385-114.615,256-256,256c-47.01,0-91.063-12.675-128.919-34.785
	c-1.808-1.055-3.605-2.132-5.381-3.239c-6.165-3.803-12.163-7.868-17.972-12.173c-1.682-1.243-3.344-2.508-4.995-3.793
	C38.64,411.167,0,338.098,0,256C0,114.615,114.615,0,256,0S512,114.615,512,256z"/>
<g>
	<path style="fill:#5B6A72;" d="M231.797,180.974c-37.961-20.111-97.535,19.066-127.106,54.247
		c-2.988,3.555-0.031,8.943,4.576,8.354c23.084-2.957,72.913-4.695,106.57,27.665"/>
	<path style="fill:#5B6A72;" d="M362.635,270.074c32.62,27.954,17.991,97.739-3.911,138.142c-2.213,4.082-8.311,3.305-9.449-1.197
		c-5.705-22.561-22.343-69.564-64.784-89.026"/>
</g>
<g transform="matrix(-0.8265 -0.5629 0.5629 -0.8265 253.64 706.7)">
	
		<ellipse transform="matrix(2.528780e-006 1 -1 2.528780e-006 546.8494 71.8892)" style="fill:#EF8100;" cx="237.48" cy="309.37" rx="101.92" ry="52.6"/>
	
		<ellipse transform="matrix(2.528780e-006 1 -1 2.528780e-006 546.8494 71.8892)" style="fill:#EFBC00;" cx="237.48" cy="309.37" rx="64.794" ry="33.437"/>
</g>
<path style="fill:#DBF2FA;" d="M427.472,36.109c20.283,59.322,28.436,114.178-10.382,171.179
	c-30.705,45.089-87.882,108.142-110.439,132.526c-5.503,5.949-14.429,7.194-21.357,2.987l-48.069-29.185l-44.767-34.035
	c-6.451-4.905-8.563-13.666-5.044-20.966c14.426-29.922,52.148-106.223,82.854-151.312c38.818-57.001,92.846-69.511,155.476-72.371
	L427.472,36.109z"/>
<path style="fill:#5B6A72;" d="M233.691,318.806l-45.028-34.234c-8.787-6.68-11.687-18.74-6.895-28.678
	c14.774-30.646,52.466-106.814,83.319-152.118c41.868-61.481,101.82-72.43,160.372-75.104l2.088-0.096l5.182,3.529l0.676,1.977
	c12.221,35.747,17.561,63.056,17.309,88.55c-0.311,31.697-9.615,60.543-28.44,88.186c-30.853,45.305-87.917,108.282-111.019,133.255
	c-7.492,8.099-19.777,9.819-29.211,4.09L233.691,318.806z M422.631,41.36c-62.282,3.228-111.223,16.671-147.18,69.471
	c-30.378,44.609-67.737,120.113-82.388,150.506c-2.213,4.591-0.871,10.165,3.19,13.252l44.506,33.838l47.789,29.016
	c4.361,2.648,10.039,1.855,13.5-1.886c22.911-24.767,79.481-87.189,109.86-131.797C447.865,150.958,442.444,100.496,422.631,41.36z"
	/>
<circle style="fill:#FEFEFE;" cx="341.02" cy="147.27" r="44.41"/>
<g>
	<path style="fill:#5B6A72;" d="M312.5,189.158c-23.096-15.729-29.091-47.315-13.362-70.413
		c15.729-23.096,47.315-29.091,70.413-13.362s29.091,47.315,13.362,70.413C367.183,198.892,335.597,204.887,312.5,189.158z
		 M362.492,115.748c-17.382-11.837-41.153-7.326-52.991,10.056c-11.837,17.382-7.326,41.153,10.056,52.991
		c17.382,11.837,41.153,7.326,52.991-10.056S379.874,127.584,362.492,115.748z"/>
	<path style="fill:#5B6A72;" d="M123.35,432.995l-19.623,28.808c-1.682-1.243-3.344-2.508-4.995-3.793l19.435-28.547L123.35,432.995
		z"/>
	<path style="fill:#5B6A72;" d="M135.753,464.478l-8.673,12.737c-1.808-1.055-3.605-2.132-5.381-3.239l8.871-13.019L135.753,464.478
		z"/>
</g>
<g>
</g>
<g>
</g>
<g>
</g>
<g>
</g>
<g>
</g>
<g>
</g>
<g>
</g>
<g>
</g>
<g>
</g>
<g>
</g>
<g>
</g>
<g>
</g>
<g>
</g>
<g>
</g>
<g>
</g>
</svg>
